<?xml version="1.0" encoding="UTF-8"?>
<svg xmlns:rdf="http://www.w3.org/1999/02/22-rdf-syntax-ns#" xmlns="http://www.w3.org/2000/svg" xmlns:cc="http://web.resource.org/cc/" xmlns:dc="http://purl.org/dc/elements/1.1/" xmlns:svg="http://www.w3.org/2000/svg" xmlns:inkscape="http://www.inkscape.org/namespaces/inkscape" xmlns:sodipodi="http://sodipodi.sourceforge.net/DTD/sodipodi-0.dtd" xmlns:ns1="http://sozi.baierouge.fr" xmlns:xlink="http://www.w3.org/1999/xlink" viewBox="0 0 2477 953">
  <path d="m0 0v953h1869l9-37c10.1-3.11 12.2-21.22 15.2-30 3.4-10.02 9.4-18.72 13.2-28.17 3-7.51 4.7-15.51 8.7-22.81 5.5-9.9 13.4-18.84 16.9-30.02h4v-7l29-25-8 8 8 1 5-9h-4l2-11v-2c-12.8-8.22-3.1-22.26-3-34l14-5c0-30.34 22.1-49.76 27.7-78 2.3-11.21-6.9-22.19-10.1-33-2.5-8.42 0.7-13.85 1.4-22-11.7-0.77-19.9-13.07-20-24-24.9-1.58-14.4-23.92-19.3-40-1.9-6.15-1-13.77-8.7-15v-4l5 3h3l6-4-2 5c14.4 4.27 10.5-10.02 19-15-4.8-13.6-16.8 6.58-21 7.52-5.3 1.19-14.9-1.57-21-1.52l5-3c-1.1-7.28-6.4-8.98-13-9-7.3 13.73-10.5-0.97-15-7h15v-3l16-2-1-3 4 2 23-8-2-2v-1c18.2 1.28 40.6-14.48 55.7-23.93 6.4-3.98 13.9-10.95 21.3-12.07-5.2 6.6-14.9 11.45-22 15.81-12.1 7.41-23.8 14.94-36.2 22.1-6.2 3.62-19.8 9.95-21.8 17.09 7.3 1.36 23.8 3.97 27-5l30-4-1 5 5-3-11.3 22 1.3 14v1l26-2-15 7v1l2 13h-4v1c8.3 4.8 10.2 12.97 8 22h6c-3.6 4.36-8.6 4.32-14 5v1l28-1v1l-16 1-3 11 11 1-17.9 10.26-10.1 7.74v1l24 2v-1l-2-2 5 3h1c6.5-4.69 11.9-0.87 19 0v5l11 4c1.2-5.54 1.6-7.22-2-12l20 9-4 10c-17 1.53-29.3 12.32-28 29h19v-8h5c2.8-5.2 7.2-7.81 13-8l-9 8v6l6 1 33.1-41 15.9-19c-7.1 16.33-30.4 29.15-33 47l-12 10-3 7c4.7-1.71 12.5-3.54 16.5-6.18 6.2-4.1 8.1-11.06 15.5-15.08 5.4-2.93 15.1-5.57 17-11.74l20-2 9-8c-2 9.57-6.7 22.95-14 30 1.7 4.86 7.7 9.61 9 2 11.7-1.58 10.6-17.13 14-26h2l4 2v12c4-0.85 6.7-3.04 8-7 20.3 3.71 10.6-24.78 24-29v-4c4.5 0.01 14.1 0.01 14.9 6.17 0.5 3.68-3.9 8.43-5.2 11.75-3.2 7.54-8.3 11.07-13 17.27-6.6 8.68-10.7 16.68-20.7 21.81-1.8-5.44-7.1-5-12-5l-4 16h5c-8.8 11.96-20.7 17.61-32.1 26.5-8.2 6.37-15.5 13.8-23.9 19.91-5.7 4.16-15.9 12.95-23 13.59l1-4c-8.4-9.06 7.7-21.91 15-26 0.2-3.89 13.8-12.72 18-14l8-14-22 16 9-21-11-2v1l5 4-14 8-10.9 15.67-3.6 12.16-12.5 28.17-24 7v1c13.3 1.57 27.8 3.85 40-2.3 3.8-1.9 7.5-1.3 9-5.7l11 3h-4v1l7 1-1 5h4l-3 4v1h3v1c-10.3 7.24-21.6 1.48-31.5 11.46-7.2 7.24 3.7 8.84 2.7 15.46-0.7 4.92-7.6 5.73-8.9 10.29-3.1 10.66 7.5 9.5 9.1 16 0.7 2.61-3.4 5.05-4.6 6.97-2.2 3.52-1.8 7.85-1.8 11.82l3-3h8v-5l10-3-6 18h4v1h-2v1l12-11 4 42c-5-3.09-6.5-13.34-7-19h-3l1-8-9 12c-0.6-3.47-2.1-5.61-6-5.6-5 0-9.9 3.72-14.9 2.56-10.8-2.48-17.5-12.8-27.1-16.96l4-17h4c0.7-5.68 13.6-24.12-0.8-22.69-1.8 0.18-3.6 1.1-5.2 1.69l-6 9-2 16-9-3-8.2 7.83-10.8-6.63-14-1.2v2h6v1l-3 1 13.3 10.13-2.7 10.87 0.4 11c6.2-0.49 13.6-2.51 16 5 10.3 4.24 19.1 18.93 1.1 17.42-3.2-0.27-3.6-3.73-5.7-5.5-2.9-2.46-6.9-2.39-10.4-1.92l-3-4v4h-3c-0.4-3.83-1.3-5.6-5-7l-4 7 9 6-6-1 1 4 4-1c1.3 5.91 5.3-0.54 9 0.72 6.1 2.07 16.8 8.61 21 13.28h-4c1.8 10.12-4.9 21.36-15 24l-9 12c-4.2 7.67 3 21.85 4 30 9.3 1.51 13 16.99 13 25h38c0.5-11.73 7-21.67 8.6-33 0.6-4.76-2.4-8.36-2.1-13 0.5-9.52-0.3-21.45-11.5-23l1-10c-4.3-2.8-3.2-9.31-3-14 3.4-0.59 4.3-1.65 5-5h3l1 11h3l-2 5v1c2.9 2.13 2.1 4.39 0 7 1.1 3.89 3.9 5.59 5.7 9.05 3.3 6.57 0.4 12.57 9.3 14.95v3l-5 2 1 5 4-4c8.5-1.32 9.8-10.09 12.8-17.04 5.1-12.4 10.6-31.43 20.8-40.56 3.7-3.25 6.8 1.48 10.4 2.26 5.5 1.16 10.8-0.05 16-1.66l0.6-14.04-5.6-26.96-8 9 8.8-47 11.4-31 1-22 4.8-35 4-1c-2.7-11.52 7.1-20.76 17-25-2.3 6.61-7.8 26.22-15 27l-4 27c3.6-2.14 3.9-4.95 4-9h4c1.2-14.23 12.6-24.19 17.2-37 2.6-7.19 0.5-15.34 6-21.57 13-14.81 35.3-32.38 38.8-53.43 4.9 0.76 7 3.21 8 8 4.8-0.74 8.5-3.29 10-8h8v-4c10.2 5.64-5.9 19.66-11.1 23.71-24.3 18.83-59.9 41.6-66.9 74.29l3-4c5.7-0.4 12.4-8.7 15 0h-4l-2 11h-3v7c-10.4 2.14-22.5 21.19-23.9 31.09-1 7.04 1.9 13.86 1.9 20.91l-5-12h-2c-7.4 20.28-12.4 37.84-10.9 60 0.6 9.26 0.4 18.78 1.9 27.96 0.9 5.83 4 9.77 2.5 16.04-2.5 10.57-13.7 16.56-23.5 19l-13 11c-10.3 2.19-15.6 28.67-16 38h-3c0 14.27 0.5 34.43-18 31v10h34v-6c5.2-1.59 5.4-6.1 6-11h7l6 8c0 11.75 9.7 9 19 9h311v-953h-2477z" fill="#020203"/>
  <path d="m2120 40v1l21 3-1 4h4l-5 8c-4.5 0.212-17.8 3.714-19 8-6.8 0.023-21.6 2.832-24 10l-8 1v5l24-5 8-1v-5l8-1v-4l32-4-1 3 17 1v4h11v4h5c0.5 14.056 21.8 5.436 24 19 7.1 2.741 10.3 6.595 14 13h2l10 4.6 18 3.4c2.6 7.28 17.8 3 24 3l4 13c5 1.55 14.4 10.91 16 16 6.3 1.86 10.4 9.94 12 16 4.2 1.24 6.8 3.83 8 8h4l7.1 13.29 8 14.81 1.5 10.88 7.4 17.02h-4l16 26-12-4c0 8.77-2.6 30.3 8 34 2.6 21.75 6.7 45.27 4 67-4.5 0.05-7 0.3-8 5h-4c-2.9 5.59-5.4 12.46-8.9 17.74-4.3 6.57-8.9 8.57-9.1 17.26l6 2 17-29c5.7 3.34 6.9 13.84 7 20h1c0-7.34-3.7-15.85-1.5-22.98 3-9.94 14.9-21.32 20.6-30.32 5.4-8.7 8.8-22.77 10.6-32.87 4.5-24.23-5.5-47-10.7-69.83-6.4-3.84-15-21.48-16-29l-8-11h-3v-8l-10.8-16.8-16.2-20.2 3 5-13-12-11-4c-1.1-3.54-2.3-4.54-6-4l-7-14-10-7h-1v4h-1l-1-5h-3v-4l11 3-11-5v-3l-11-2v-3c-5.5-0.049-10.2-0.867-13-6-19.1-4.328-36.2-20.08-56-21-1.8-5.047-6.5-4.166-10.8-5.876-6.9-2.711-13.2-1.824-20.2-3.437-5.9-1.365-10.8-4.927-17-5.687v-3l-32-3z" fill="#473228"/>
  <path d="m2096 42v1l22 3v1h-6c-0.5 7.371-9.3 12.189-16 14v3h-5c-4.7 7.787-19.5 14.215-26.9 20.043-18.1 14.299-38.9 45.947-64.1 43.957v1c10.7 3.34 23.7 4.06 28-9h4v-4c20.3-6.96 35.2-30.336 56-36v-5l8-1c3.6-6.595 16.8-9.921 24-10 2.6-4.25 14-7.253 19-8l5-8h-4l1-4c-14.2-3.369-30.6-4.682-45-2z" fill="#484441"/>
  <path d="m2088 43v1h8l-8-1z" fill="#473228"/>
  <path d="m2083 44v2l21-1-16 14c-13 0.674-17.3 8.779-26 15.996-10.2 8.538-23.2 17.089-30 29.004 15.8-4.397 25.6-25.503 43-28l5-12c5.1-0.344 11.3-2.843 13-8 9.8-0.282 15-4.577 19-13l-29 1z" fill="#695952"/>
  <path d="m2072 48v1h8v5h-3c-1.4 4.658-5.1 5.179-8.2 8.495-6.3 6.793-11.1 15.103-20.8 17.505-3.5 7.831-19.4 23.34-28 24l-4 4v4l-27 12v1c3.6 0.92 7.2 3.23 11 2.84 18.8-1.93 28.9-20.55 40.1-32.866 7.1-7.821 15.6-13.502 23.3-20.574 7.8-7.264 12.6-14.173 24.6-15.4l16-14-32 3z" fill="#7b7172"/>
  <path d="m2093 56c-2.4 4.576-7.9 7.326-13 8l-5 12c-8.1 0.583-14.3 6.66-20.4 11.403-10.8 8.229-19.9 16.987-29.8 26.107-6.4 5.85-16.1 8.64-21.8 14.49 8.9 2.9 11.2-3.57 18.1-7.18 18.3-9.54 29.9-27.967 46.9-38.778 5.2-3.294 21.4-12.652 23-18.042h5v-3c7.1-1.092 15.8-6.454 16-14h6c-6.7-5.074-16.1 8.434-25 9z" fill="#6d5141"/>
  <path d="m2072 47v1l8-1h-8z" fill="#473228"/>
  <path d="m2067 49v1h5v-2l-5 1z" fill="#535459"/>
  <path d="m2061 51v1l14 1-5 1-9.8 6.167-28.7 28.666-4.5 7.167h-7l-7 8-2 8c-5.3 0.17-13.1 2.92-13 9l-11 2v1c12.1-0.13 18.9-7.21 29-12v-4l4-4c8.5-0.28 25.7-15.711 28-24 10.5-1.494 14.8-10.823 21.5-17.505 3.2-3.227 6.7-3.53 7.5-8.495h3v-5l-19 2z" fill="#8f8a83"/>
  <path d="m2027 65l5 3v-4h13c-3.6 4.156-7.4 7.578-13 8-2 12.959-23 17.747-24 32l-24 12-5 5h19l-1-3 14-6 2-8 7-8h7c7.2-17.016 20.5-20.832 32-33.37 2.9-3.11 10.4-4.695 11-8.63l5-1c-11.6-6.918-37.5 6.008-48 12z" fill="#b8b7af"/>
  <path d="m2051 55l5-1-5 1m-3 0v1h3l-3-1z" fill="#695952"/>
  <path d="m2037 59v1l8-4-8 3z" fill="#535459"/>
  <path d="m2043 59l5-2-5 2z" fill="#8f8a83"/>
  <path d="m2032 62l3-2-3 2z" fill="#535459"/>
  <path d="m2128 64v4l-8 1v5l-8 1c-4.6-4.714-13.1 4.094-18 4.852-23.1 3.552-41.8 24.828-62 36.148v4h-4c-9 16.68-21.6 8.86-36 7-2.6 4.02-14.1 5.74-19 6v1l11 2v3l24 2v-3l8-2h1l15 3 3-3c1.2-9.1 19.6-27.51 28-30.99 5.4-2.23 11.4-1.73 17-4.01v-5h32c-0.1-11.428-18.8-8.778-28-10v-1l27-3v-2h-4l5-4 1 3c4.7-2.454 11.3-7.181 16-8.566 10.1-2.921 24.2-0.48 34.1 1.491 3.1 0.631 9 1.296 11.3 3.678 2.7 2.773 1.6 8.844 1.6 12.397h16v9l11-1v16h5v16h32v13h8v3l24-2v10h4v8h4v3h8v10l3 3h13v16h16v27l11 4v1c8.1 0.02 15 1.89 13 11h-4v-3h-4v8h3l-1 16h4c0.6 3.26-0.1 8.56 1.3 11.29 5.5 10.24 14.8 14.71 18 26.71 4.9 18.37-3.7 40.23-7.3 58l10-5-1-18-3-49c-10.2-5.88-8-24.08-8-34l12 4c-0.6-12.6-12.8-15.32-16-26h4l-7.4-18-1.2-9.9-8.3-15.66-7.1-12.44h-4c-0.8-4.6-3.4-7.24-8-8-0.9-6.17-5.5-14.92-12-16-0.9-5.37-10.7-15.1-16-16l-4-13c-6.9 0-20 3.89-24-3-7.8 0-14.4-1.06-20.9-5.77-2.4-1.72-4.6-4.79-7.1-2.23h-2c-2.8-6.738-6.7-11.208-14-13-1.1-13.822-23-5.19-24-19h-5v-4h-11v-4c-5.1 0-14.4 2.056-16-4l-32 4z" fill="#2b2321"/>
  <path d="m2029 64l3-1-3 1m-5 1v1l4-1h-4z" fill="#535459"/>
  <path d="m2032 64v4c-10-5.348-25.6 8.322-34 14v1l7-4c7 1.789 10.9 0.089 11 9l-8 3v5h-4l-4 4v4l-8 2v6h-5v3l-15 3v1c4.3 1.09 10.5 2.24 12-3l24-12c1.9-13.66 23-18.896 24-32 5.8-0.187 10.1-3.046 13-8h-13z" fill="#bbc6cb"/>
  <path d="m2018 70l4-2-4 2z" fill="#535459"/>
  <path d="m2013 72l5-2-5 2z" fill="#2b2321"/>
  <path d="m2012 74l4-3-4 3z" fill="#8f8a83"/>
  <path d="m2008 74v1l5-3-5 2z" fill="#695952"/>
  <path d="m2004 78l4-3-4 3z" fill="#796d5f"/>
  <path d="m2005 79l-11.7 6.714-22.6 18.916-10.7 10.37-17.8 0.28-8.4 6.21-16.8 0.51v4c-4 0.3-5.6 1.23-7 5 7.4-0.22 14.4-6.26 21 0l1-3h4l2 16v9h-10v4l13 1c5.2-12.16 1.9-19.75-1-32h18l3-9 26-2v-3h5v-6l8-2v-4l4-4h4v-5l8-3c0-9.147-3.3-7.774-11-9z" fill="#d8d9d9"/>
  <path d="m1997 83l3-1-3 1z" fill="#535459"/>
  <path d="m1995.7 83.333l0.6 0.334-0.6-0.334m-3.7 2.667l3-2-3 2z" fill="#7b7172"/>
  <path d="m1989 88l3-1-3 1z" fill="#484441"/>
  <path d="m1990.7 87.333l0.6 0.334-0.6-0.334m-6.7 3.667v1l6-4-6 3z" fill="#8f8a83"/>
  <path d="m1978 97l6-5-6 5m-1.3 0.333l0.6 0.334-0.6-0.334z" fill="#535459"/>
  <path d="m2280 98v4h3l1 5h1v-4h1c2 4.57 5.1 6.38 10 7l-2 2v1l9 11 6 4 11 4 13 12c-10.6-19-30.6-41.33-53-46z" fill="#6d5141"/>
  <path d="m1973 101l3-1-3 1z" fill="#535459"/>
  <path d="m1968 106l8-5c-3.4-0.82-6.4 2.13-8 5m-2 0v2l2-2h-2z" fill="#8f8a83"/>
  <path d="m1964 108v2l2-2h-2z" fill="#a3a0a0"/>
  <path d="m1962 110v2l2-2h-2z" fill="#8f8a83"/>
  <path d="m1912 118v2l16.7-0.56 18.3-6.44c-7.8-3.28-12.5 2.27-19.2 4.49-4.6 1.55-10.9 0.51-15.8 0.51z" fill="#484441"/>
  <path d="m1939 113v1h13l-13-1z" fill="#8f8a83"/>
  <path d="m1932 121c-11.4 0-21.2-0.22-26 12l11-7v-4l17.7-0.51 17.3-6.49c-7-2.95-18.6-2.69-20 6z" fill="#b8b7af"/>
  <path d="m1952 114v1h8l-8-1z" fill="#535459"/>
  <path d="m1931 117c-6.1 5.76-14.7 1.01-22 3.89-7 2.79-13.5 19.18-16 26.11 9.4-2.98 12.3-16.31 19.5-22.54 5.3-4.57 13-3.46 19.5-3.46l1-4h-2z" fill="#8f7c74"/>
  <path d="m1961 117l-3 9h-18l2 10h2c0.1-11.5 9.4-8 18-8l6-6-1-3 7 1-13-3z" fill="#a3a0a0"/>
  <path d="m1967 119l1 3-6 6h-7v1l29-6-17-4z" fill="#7b7172"/>
  <path d="m1960 129v1c7.2 1.34 16.6 1.52 19-7l-19 6z" fill="#695952"/>
  <path d="m1979 123c-2.8 6.13-8.6 7.85-15 8v1l28-2 3-3-16-4z" fill="#604338"/>
  <path d="m1943 155h1l3-2c0.4-5.65 0.8-22.52 5-25-11.8-4.8-5.8 10.7-6.1 16-0.1 3.85-2.2 7.25-2.9 11z" fill="#796d5f"/>
  <path d="m1898 154c-5.6 1.92-4.6 7.07-4 12h-1l-2-2-1 12h-3l-3 4-3 16-3-2 2 4c-1.8 7.58-0.6 21.7-8 26-3.6 26.38-7.2 56.46-2.7 82.98 1.8 10.76 6.7 21.33 9.1 32.02 3 13.52 16 37.52 7.6 51v2h2l4 19c4.6 2.62 6.6 8.22 9.4 12.57 6.4 9.81 13 22.88 23.6 28.43l-2 3 14 1-1-5 11-3 1-8h-4v-8l7-2-2-7-3 6-7-2c1.6-4.33 3.8-11.11-3-11l1-4c-5.7-2.95-9.4-8.56-7-15-11.9-6.89-14.3-30.13-18.8-42.83-16.4-45.97-18.9-100.96-0.8-147 4.4-11.35 10.8-22.35 18-32.17 4.4-5.96 10.8-11.36 11.6-19l-12 1v-4h10v-9l-2-16-5 3-1-3c-16.7 0-31.8 6.95-32 26z" fill="#f9f6f4"/>
  <path d="m1941 128l4 21h1c0-4.76 1.3-11.13-4-13l-1-8z" fill="#b8b7af"/>
  <path d="m1904 133v3h1l1-3h-2m-2 3l-1 5 3-5h-2z" fill="#a3a0a0"/>
  <path d="m2330 136l6 8-6-8z" fill="#2b2321"/>
  <path d="m1902 140c-5.2 4.5-13 8.81-14 16 3.8-2.74 5.5-3.67 10-2l4-14z" fill="#bbc6cb"/>
  <path d="m1894 141l-2 6h1l3-6h-2z" fill="#484441"/>
  <path d="m1891 147v2l2-2h-2m-3 5l3-3-3 3z" fill="#7b7172"/>
  <path d="m1887 152l2 11-3 5h-3v5h1l10-19-6 2-1-4z" fill="#484441"/>
  <path d="m1891 152l4 4 1-4h-5z" fill="#7b7172"/>
  <path d="m1942 153l-2 7 8-2v-1l-6-4z" fill="#8f8a83"/>
  <path d="m1892 157v3h1l1-3h-2z" fill="#8f7c74"/>
  <path d="m1942 158v1l18 3c-5.6-3.99-11.4-4.26-18-4z" fill="#7b7172"/>
  <path d="m1952 158v1l4 1v-1l-4-1z" fill="#484441"/>
  <path d="m1891 160l-1 3 1-3z" fill="#8f8a83"/>
  <path d="m1892 160c-12.2 18.66-22.8 46.9-25.8 69.02-0.7 5.37 0.8 10.66 0.3 15.98-1.1 12.98-3.4 25.86-2.5 38.96 1 13.95 6 28.03 6 42.04h1v-2h1l4 36h3l6 35 3-1-2-2v-2c2.4-2.15 0.8-5.34 1.3-8.44 1.7-10.36-1.5-24.78-5.2-34.56-5.9-15.58-12.3-33.25-13.9-50-2.3-24.17 1.8-49.07 3.8-73 7.5-2.62 6.7-19.18 8-26l-2-4 3 2 3-16 3-4h3l1-12 2 2h1l-2-6z" fill="#d8d9d9"/>
  <path d="m1939 160l-3 6 5-6h-2z" fill="#695952"/>
  <path d="m1957 162v1l11 2c-2.7-3.41-6.9-3.55-11-3z" fill="#484441"/>
  <path d="m1934 166v2h2v-2h-2z" fill="#8f8a83"/>
  <path d="m1886 168l-1 4 3-4h-2z" fill="#8f7c74"/>
  <path d="m2352 168l4 8-4-8z" fill="#2b2321"/>
  <path d="m1932 169l-4 7 6-7h-2z" fill="#7b7172"/>
  <path d="m1884 172l-6 15h1l5-15z" fill="#695952"/>
  <path d="m1881 173l-5 13h-3l1 6c-4.9 1.84-6 5.01-5 10l-3-2c0 13.82-4.5 26.49-6.6 40-3.3 21.32-4.4 45.7-0.4 67h1c0-35.6 2-70.43 11.2-105 2.7-9.92 8.9-18.97 11.8-29h-2z" fill="#473228"/>
  <path d="m1927 176l-2 4 2-4z" fill="#8f8a83"/>
  <path d="m1924 183l4-4-4 4z" fill="#484441"/>
  <path d="m1923.3 182.67l0.4 0.66-0.4-0.66z" fill="#8f8a83"/>
  <path d="m1921 184l-1 4 3-4h-2z" fill="#a3a0a0"/>
  <path d="m1876 189v3h1l1-3h-2z" fill="#796d5f"/>
  <path d="m1918 189v3h1l1-3h-2z" fill="#b8b7af"/>
  <path d="m1919.3 190.67l0.4 0.66-0.4-0.66z" fill="#7b7172"/>
  <path d="m1875 192v5h1l1-5h-2m42 0l-3 8h1l2-8z" fill="#a3a0a0"/>
  <path d="m1874 195l-4 16h1l3-16z" fill="#695952"/>
  <path d="m1876 195l-4 13h1l3-13z" fill="#b8b7af"/>
  <path d="m1917 195l-2 8h1l1-8z" fill="#484441"/>
  <path d="m1913 200l-2 11h1l3-11h-2z" fill="#8f7c74"/>
  <path d="m2370 200c1.2 6.02 8.1 22.29 14 24-0.8-5.4-4.6-14.21-10-16l-4-8z" fill="#2b2321"/>
  <path d="m1913 204l-9.7 32-1.3 52h2l2-59h3c0.6-7.66 7.6-18.19 4-25z" fill="#473228"/>
  <path d="m1910 205l-2 11h1l3-11h-2z" fill="#bbc6cb"/>
  <path d="m1869 211l-2 13h2l2-13h-2z" fill="#a3a0a0"/>
  <path d="m1906 219v5h1l1-5h-2z" fill="#8f8a83"/>
  <path d="m1905 224l-1 4h1v-4z" fill="#d0c7b5"/>
  <path d="m1865 227v5h1l-1-5z" fill="#8f7c74"/>
  <path d="m1904 228v4h1l-1-4z" fill="#7b7172"/>
  <path d="m1865 232c-0.1 9.74-2.8 19.28-3 29-0.8 33.53 2.3 65.06 11.6 97.17 2.8 9.9 4.4 20.71 9.4 29.83h1l-5-28h-3l-4-36h-1v2h-1c0-18.77-6.4-36.98-6-56 0.3-12.04 5.9-26.41 1-38z" fill="#bbc6cb"/>
  <path d="m1903 232v3h1l-1-3z" fill="#a3a0a0"/>
  <path d="m1864 235v5h1l-1-5z" fill="#8f8a83"/>
  <path d="m1902 235v5h1l-1-5z" fill="#a3a0a0"/>
  <path d="m1863 240v8h1l-1-8z" fill="#8f8a83"/>
  <path d="m1902 240l-1 14h1v-14z" fill="#535459"/>
  <path d="m1901 243v5h1l-1-5m-39 5v8h1l-1-8m38 0v8h1l-1-8z" fill="#8f8a83"/>
  <path d="m2392 251l3 37h2l-2-37h-3z" fill="#2b2321"/>
  <path d="m2358 253l5 35h3c0 8.14-2.9 28.38 3 34 4.4-18.62-0.5-40.3-6-58h5c-1.5-4.67-5.3-9.36-10-11z" fill="#604338"/>
  <path d="m1861 256v8h1l-1-8z" fill="#7b7172"/>
  <path d="m1899 256v8h1l-1-8z" fill="#a3a0a0"/>
  <path d="m1900 256c0 22.77 0.4 44.48 3.4 67 0.9 6.74 1.9 19.71 7.6 24 0-15.84-6.3-30.3-7.8-46-1.4-14.3 2.5-31.6-3.2-45z" fill="#484441"/>
  <path d="m1860 264v32h1l-1-32z" fill="#796d5f"/>
  <path d="m1861 264l1 40h1c0-10.92 2.2-30.1-2-40z" fill="#a3a0a0"/>
  <path d="m1898 264v24h1l-1-24z" fill="#b8b7af"/>
  <path d="m1899 264v24h1l-1-24z" fill="#796d5f"/>
  <path d="m2385 323c3.3-16.9 14.2-39 6-56-12.4 5.49-8 31.05-8 42 0 4.4-1.9 11.31 2 14z" fill="#6d5141"/>
  <path d="m2371 277l1 32-3 17c10.6-6.58 10.4-39.87 4-49h-2z" fill="#2b2321"/>
  <path d="m1898 288v8h1l-1-8z" fill="#d8d9d9"/>
  <path d="m1899 288v8h1l-1-8z" fill="#8f8a83"/>
  <path d="m1860 296l3 30h1l-4-30z" fill="#484441"/>
  <path d="m1861 296v8h1l-1-8z" fill="#7b7172"/>
  <path d="m1899 296v8h1l-1-8z" fill="#bbc6cb"/>
  <path d="m1862 304v8h1l-1-8z" fill="#8f7c74"/>
  <path d="m1900 304v8h1l-1-8z" fill="#b8b7af"/>
  <path d="m1863 307v8h1l-1-8z" fill="#a3a0a0"/>
  <path d="m1901 307l1 13h1l-2-13z" fill="#8f8a83"/>
  <path d="m2391 307l-4 13c3.7-2.73 5.7-8.66 4-13z" fill="#2b2321"/>
  <path d="m1863 315v5h1l-1-5z" fill="#7b7172"/>
  <path d="m1864 323l2 13h1l-3-13z" fill="#796d5f"/>
  <path d="m1903 323v5h1l-1-5z" fill="#bbc6cb"/>
  <path d="m1905 331v5h1l-1-5z" fill="#a3a0a0"/>
  <path d="m1867 336v8h1l-1-8z" fill="#796d5f"/>
  <path d="m1868 338c0 4.06-0.5 7.47 3 10l-3-10z" fill="#a3a0a0"/>
  <path d="m1907 340v4h1l-1-4z" fill="#d0c7b5"/>
  <path d="m1908 344v3h1l-1-3z" fill="#a3a0a0"/>
  <path d="m1869 347v8h1l-1-8z" fill="#695952"/>
  <path d="m1909 347v5h1l-1-5z" fill="#d0c7b5"/>
  <path d="m1910 347v5h1l-1-5z" fill="#8f7c74"/>
  <path d="m1870 348l3 15h1l-4-15z" fill="#8f8a83"/>
  <path d="m1912 357v3h2v-3h-2z" fill="#7b7172"/>
  <path d="m1913 360v3h1l-1-3z" fill="#a3a0a0"/>
  <path d="m1914 360l2 8h1l-3-8z" fill="#695952"/>
  <path d="m2357 360c-3.4 8.76-26.1 26.85-13 36l-1-5 5 1 1-6 4 1 9-13h1l-1 7c5-4.38-0.6-15.56-2-21h-3z" fill="#604338"/>
  <path d="m1874 363l3 8-3-8z" fill="#8f8a83"/>
  <path d="m2325 364l5 10h3c-0.6-5.41-2.5-8.86-8-10m-408 1l9 22h1l-1-11h-3l-6-11z" fill="#473228"/>
  <path d="m1917 368l1 4h1l-2-4z" fill="#796d5f"/>
  <path d="m1918 372l1 4h1l-2-4z" fill="#8f8a83"/>
  <path d="m1918 374c0.6 8.42 3.6 19.66 12 23-3.5 5.9 1.1 12.96 7 15l-1 4c6.3 1.56 4.1 6.18 3 11l7 2 3-6 2 7-7 2v8h4l-1 8c7-0.23 12.6-8.95 10.2-16-2.5-7.33-10.9-12.03-15.2-18.17-8.8-12.33-14.2-28.6-24-39.83z" fill="#d8d9d9"/>
  <path d="m2362 374l-9 13-4-1-1 6-5-1v4l14-3c2.4-5.65 7.5-11.55 5-18z" fill="#796d5f"/>
  <path d="m1878 376l1 4h1l-2-4m42 0l2 3-2-3z" fill="#8f7c74"/>
  <path d="m1878 379l2 3-2-3z" fill="#695952"/>
  <path d="m1922.3 379.67l0.4 0.66-0.4-0.66z" fill="#7b7172"/>
  <path d="m2379 380v16h1l1-16h-2z" fill="#6d5141"/>
  <path d="m1878 381c0.2 4.51 1.2 12.6 6 14-1 6.87 3.1 10.73 7 16h1c-0.6-8.59-8.4-23.43-14-30z" fill="#473228"/>
  <path d="m1880 384l2 3v-3h-2z" fill="#7b7172"/>
  <path d="m1924.3 384.67l0.4 0.66-0.4-0.66z" fill="#a3a0a0"/>
  <path d="m1925 386l2 3-2-3z" fill="#7b7172"/>
  <path d="m1882 387l3 5-3-5z" fill="#8f8a83"/>
  <path d="m2358 388l-1 4h1l2-4h-2z" fill="#484441"/>
  <path d="m2380 388c0 1.95-0.4 10.83-3 6h-1l1 6h2l1-12z" fill="#473228"/>
  <path d="m1927.3 390.67l0.4 0.66-0.4-0.66m0.7 1.33l3 4-3-4z" fill="#a3a0a0"/>
  <path d="m2346 394v1l11-2-11 1z" fill="#2b2321"/>
  <path d="m2377 392v5h2v-5h-2z" fill="#9a7756"/>
  <path d="m1886.3 395.67l0.4 0.66-0.4-0.66z" fill="#a89887"/>
  <path d="m1931.3 396.67l0.4 0.66-0.4-0.66z" fill="#8f8a83"/>
  <path d="m1887 397v3h1l-1-3z" fill="#a89887"/>
  <path d="m1932.3 398.67l0.4 0.66-0.4-0.66z" fill="#a3a0a0"/>
  <path d="m1934 400l1 4h1l-2-4z" fill="#695952"/>
  <path d="m1889 403l2 3-2-3z" fill="#8f8a83"/>
  <path d="m1936 405v1l2 2h1l-3-3z" fill="#484441"/>
  <path d="m1937.3 406.67l0.4 0.66-0.4-0.66z" fill="#a3a0a0"/>
  <path d="m1939.3 408.67l0.4 0.66-0.4-0.66z" fill="#8f7c74"/>
  <path d="m1940.3 410.67l0.4 0.66-0.4-0.66z" fill="#a3a0a0"/>
  <path d="m1892 411l6 15h3l-1 6h3v1l-2 2v1l2 6 16 8-10-12.17-17-26.83z" fill="#473228"/>
  <path d="m1893 411v2h2v-2h-2z" fill="#b8b7af"/>
  <path d="m1941 412l3 4-3-4z" fill="#a3a0a0"/>
  <path d="m1894 413v3h2v-3h-2z" fill="#7b7172"/>
  <path d="m1896 416l3 4-3-4z" fill="#8f8a83"/>
  <path d="m1944 416l4 4-1-4h-3z" fill="#484441"/>
  <path d="m1899.3 420.67l0.4 0.66-0.4-0.66m1 2l0.4 0.66-0.4-0.66z" fill="#8f8a83"/>
  <path d="m1950.3 422.67l0.4 0.66-0.4-0.66z" fill="#7b7172"/>
  <path d="m1902 424l1 4h1l-2-4z" fill="#b8b7af"/>
  <path d="m2040 431l2 3h1l5-6-8 3z" fill="#484441"/>
  <path d="m1904 429v1l2 2h1l-3-3z" fill="#d0c7b5"/>
  <path d="m1905.3 430.67l0.4 0.66-0.4-0.66m52 0l0.4 0.66-0.4-0.66z" fill="#7b7172"/>
  <path d="m1906 432l3 5-3-5z" fill="#695952"/>
  <path d="m1907.3 432.67l0.4 0.66-0.4-0.66z" fill="#a89887"/>
  <path d="m1958 432v4h1l-1-4z" fill="#a3a0a0"/>
  <path d="m1959 432v4h1l-1-4z" fill="#535459"/>
  <path d="m2037 433v1h5l-5-1z" fill="#695952"/>
  <path d="m2039 433l-9 5v1c3.8 0.32 9.1-1.58 9-6z" fill="#8f8a83"/>
  <path d="m1909 435l3 4-3-4z" fill="#a3a0a0"/>
  <path d="m1900 436v4h1l2-3-3-1z" fill="#a89887"/>
  <path d="m1901 437c-4.7 12.38-9 25.38-4.8 38.82 1.1 3.54 4.3 5.81 5.8 9.18h1l5-4-1 4 6-5c-22-5.57-12.2-28.31-10-43h-2z" fill="#f9f6f4"/>
  <path d="m1909 437l6 7-6-7z" fill="#796d5f"/>
  <path d="m1957 437l-1 3 1-3z" fill="#b8b7af"/>
  <path d="m2028 440l4-2-4 2z" fill="#535459"/>
  <path d="m2004 453l2 3h2l24-17-28 14z" fill="#bbc6cb"/>
  <path d="m1898 440v3h1l-1-3z" fill="#796d5f"/>
  <path d="m1902 440v3h1l-1-3z" fill="#8f8a83"/>
  <path d="m1956 440l-1 5h1v-5m68 1v1l4-1h-4z" fill="#7b7172"/>
  <path d="m1905 441l6 7 1-1-7-6z" fill="#8f8a83"/>
  <path d="m2360 450c5.4-1.12 14-3.35 16-9-5.6 1.6-13.2 3.52-16 9z" fill="#2b2321"/>
  <path d="m2014 447v1l10-5-10 4m-116.7-3.33l0.4 0.66-0.4-0.66z" fill="#7b7172"/>
  <path d="m1901.3 443.67l0.4 0.66-0.4-0.66z" fill="#8f8a83"/>
  <path d="m1896 445v3h1l-1-3z" fill="#535459"/>
  <path d="m1897 445v3h1l-1-3m3 0v3h1l-1-3z" fill="#a3a0a0"/>
  <path d="m1901 445c-2.2 12.01-3.3 26.62 9 33l-1-6c-11-9.22-3.7-15.99-8-27z" fill="#2b2321"/>
  <path d="m1953.3 446.67l0.4 0.66-0.4-0.66z" fill="#796d5f"/>
  <path d="m2013 448l3-1-3 1z" fill="#484441"/>
  <path d="m1911 447l12 8 2-3-2-2-12-3z" fill="#b8b7af"/>
  <path d="m1918 447l-1 3v1l5 1-4-5z" fill="#796d5f"/>
  <path d="m1895 448l-1 4h1v-4z" fill="#484441"/>
  <path d="m1899 448v3h1l-1-3z" fill="#b8b7af"/>
  <path d="m1938 452l8-3c-3.7-1.5-6-0.29-8 3z" fill="#a3a0a0"/>
  <path d="m1946 448v1h6l-6-1z" fill="#7b7172"/>
  <path d="m2011.7 448.33l0.6 0.34-0.6-0.34m-71.7 3.67l6-2c-2.9-1.12-4.2-0.46-6 2z" fill="#796d5f"/>
  <path d="m2008 451l3-1-3 1z" fill="#484441"/>
  <path d="m2016.7 449.33l0.6 0.34-0.6-0.34z" fill="#8f8a83"/>
  <path d="m1899 451v16h1l-1-16z" fill="#535459"/>
  <path d="m1936 451l1 6h1v-6h-2z" fill="#d0c7b5"/>
  <path d="m2006.7 451.33l0.6 0.34-0.6-0.34z" fill="#8f8a83"/>
  <path d="m2008 456l8-4-8 4z" fill="#535459"/>
  <path d="m1894 452v4h1l-1-4z" fill="#8f7c74"/>
  <path d="m1898 452v14h1l-1-14z" fill="#b8b7af"/>
  <path d="m1938 452l1 6h1l4-5-6-1z" fill="#2b2321"/>
  <path d="m2004.7 452.33l0.6 0.34-0.6-0.34z" fill="#8f8a83"/>
  <path d="m1918.7 453.33l0.6 0.34-0.6-0.34m81.3 0.67v1l4-1h-4z" fill="#7b7172"/>
  <path d="m1938 454l-5 3v1h6l-1-4z" fill="#8f7c74"/>
  <path d="m1997 456l3-2-3 2z" fill="#484441"/>
  <path d="m1918 482v1c7.5 5.58 15.4 3.79 24 1.58 15.7-4.01 30.6-10.98 45.1-17.93 6.3-3.01 15.4-6.33 18.9-12.65-8.6 1.26-14.3 6.77-22 10.1-20.8 9.01-43 17.88-66 17.9z" fill="#f9f6f4"/>
  <path d="m1923.7 455.33l0.6 0.34-0.6-0.34z" fill="#7b7172"/>
  <path d="m1893 456v11h1l-1-11z" fill="#8f8a83"/>
  <path d="m1894 456c0 5.09-2 15.49 2 19l-2-19z" fill="#b8b7af"/>
  <path d="m1925 456l13 3-13-3z" fill="#484441"/>
  <path d="m1928 456v1h9l-9-1z" fill="#d8d9d9"/>
  <path d="m2e3 459v1l7-3-7 2z" fill="#7b7172"/>
  <path d="m1992.7 458.33l0.6 0.34-0.6-0.34z" fill="#695952"/>
  <path d="m1892 459v8h1l-1-8m98.7 0.33l0.6 0.34-0.6-0.34z" fill="#535459"/>
  <path d="m1984 462v1l6-2-6 1z" fill="#7b7172"/>
  <path d="m1990.7 460.33l0.6 0.34-0.6-0.34z" fill="#b8b7af"/>
  <path d="m1998.7 460.33l0.6 0.34-0.6-0.34z" fill="#8f8a83"/>
  <path d="m1995 463l3-2-3 2z" fill="#535459"/>
  <path d="m1982 462v2h2v-2h-2z" fill="#484441"/>
  <path d="m1981 464v1l5-1h-5z" fill="#d8d9d9"/>
  <path d="m1971 464v1l1 3 9-3-10-1z" fill="#484441"/>
  <path d="m1989 465v1h3l-3-1z" fill="#8f7c74"/>
  <path d="m1974 467v1l4-1h-4z" fill="#a3a0a0"/>
  <path d="m1984 467v1l5-1h-5z" fill="#b8b7af"/>
  <path d="m1893 467v5h1l-1-5z" fill="#695952"/>
  <path d="m1900.3 467.67l0.4 0.66-0.4-0.66z" fill="#8f7c74"/>
  <path d="m1943 468l3 4-3-4z" fill="#695952"/>
  <path d="m1964 471v1l8-4-8 3m17-2v1h3l-3-1z" fill="#8f8a83"/>
  <path d="m1952 475l12-3c-4.2-1.5-9-0.11-12 3z" fill="#473228"/>
  <path d="m1955 483h5l-2 5c4.3 0 26.4 0.7 20 7l9 2v-1h-3v-6l5-1-2-2 5-5-24 1 12-12c-7.6 2.54-20 5.69-25 12z" fill="#604338"/>
  <path d="m1902.3 472.67l0.4 0.66-0.4-0.66z" fill="#a3a0a0"/>
  <path d="m1960 473v1l4-1h-4z" fill="#bbc6cb"/>
  <path d="m1968 475v1l8-4-8 3z" fill="#8f8a83"/>
  <path d="m1903 473l3 3-3-3m43 0l-2 3v1l9-1-7-3z" fill="#535459"/>
  <path d="m1958.7 473.33l0.6 0.34-0.6-0.34z" fill="#7b7172"/>
  <path d="m2003 477v1l22-2c-3.8-5.73-16.7-1.04-22 1z" fill="#442313"/>
  <path d="m1955 474v1h3l-3-1z" fill="#8f7c74"/>
  <path d="m1895.3 475.67l0.4 0.66-0.4-0.66z" fill="#7b7172"/>
  <path d="m1953.7 475.33l0.6 0.34-0.6-0.34z" fill="#a3a0a0"/>
  <path d="m2003 478v1l14 1h1v3h1v-3h6l-1-5-21 3z" fill="#6d5141"/>
  <path d="m1904 476v1l5 2-5-3z" fill="#a3a0a0"/>
  <path d="m1947 477v1l5-1h-5z" fill="#bbc6cb"/>
  <path d="m1964.7 476.33l0.6 0.34-0.6-0.34z" fill="#b8b7af"/>
  <path d="m2027 476l1 3h1v-3h-2z" fill="#535459"/>
  <path d="m1939 477v1h5l-5-1z" fill="#484441"/>
  <path d="m1944 477v1h3l-3-1z" fill="#8f8a83"/>
  <path d="m1962.7 477.33l0.6 0.34-0.6-0.34m63.3-0.33l-4 4v1c3.5-0.52 5-1.54 6-5h-2z" fill="#a3a0a0"/>
  <path d="m1897.3 478.67l0.4 0.66-0.4-0.66z" fill="#7b7172"/>
  <path d="m1909 478v1l4 3h1v-4h-5z" fill="#796d5f"/>
  <path d="m1931 478v2l7-1-7-1z" fill="#484441"/>
  <path d="m1936 479v1l8-1h-8z" fill="#8f8a83"/>
  <path d="m1995 480l8-1-8 1z" fill="#484441"/>
  <path d="m1910.7 479.33l0.6 0.34-0.6-0.34z" fill="#a3a0a0"/>
  <path d="m1996 479v1h4l-4-1z" fill="#695952"/>
  <path d="m2e3 479v1h4v1h-12l-3 8-5 1c0 3.19-0.4 5.27 3 6v1l-10-1v6h1v-4l18-2v-1l-4-1v-4h28v-5l-4 2c-3-3.89-7.5-3.52-12-3v-1l4-4h-8z" fill="#8f8a83"/>
  <path d="m2008 479l-4 4v1l12 3 5-1c0.2-2.46-0.9-8.33-2-3h-1v-3h-1l-1 2-8-3z" fill="#7b7172"/>
  <path d="m1898.3 480.67l0.4 0.66-0.4-0.66z" fill="#695952"/>
  <path d="m1899.3 480.67l0.4 0.66-0.4-0.66z" fill="#a3a0a0"/>
  <path d="m1931 480v1h5l-5-1z" fill="#b8b7af"/>
  <path d="m1952 481v1l5-1h-5z" fill="#a89887"/>
  <path d="m1994 483l10-2c-3.7-1.55-7.7-1.52-10 2z" fill="#d8d9d9"/>
  <path d="m1903 485h-1v-3h-1c-0.8 4.47-14.6 11.59-8 13v1c-8 6.99 4.8 14.5 11 15l-5-18 10-7v-1l-1-4-5 4z" fill="#d0c7b5"/>
  <path d="m1916.3 481.67l0.4 0.66-0.4-0.66z" fill="#8f7c74"/>
  <path d="m1919 484c0-3.44 6.1-2 9-2-2.4-1.4-14.2-0.94-9 2z" fill="#b8b7af"/>
  <path d="m1899 482v4h1l-1-4z" fill="#484441"/>
  <path d="m1900 482v4h1l-1-4z" fill="#8f8a83"/>
  <path d="m1930 487v4h1v-3c7 0.08 11.6 3.66 16 9l-6 1v1l12-1v-1h-4v-1c5.8-0.85 12.5-4.36 16 2h1l7-9-15-1 2-5-30 4z" fill="#7b7172"/>
  <path d="m2021 482l-1 8c-9.3-3.32-18.5-1.84-28 0v4l4 1v1l-18 2-2 6 3-5 18 6v-1h19c0.1-6.61 3.1-10.68 8-15v-1l-3-6z" fill="#b8b7af"/>
  <path d="m2022 482v6h1l1-6h-2z" fill="#d0c7b5"/>
  <path d="m2024 482v2l2-2h-2z" fill="#695952"/>
  <path d="m1909 484v2l2-2h-2z" fill="#796d5f"/>
  <path d="m1919.7 484.33l0.6 0.34-0.6-0.34z" fill="#d0c7b5"/>
  <path d="m2023 484v4h1l-1-4z" fill="#796d5f"/>
  <path d="m1920 485l9 6h1v-4l-10-2z" fill="#a3a0a0"/>
  <path d="m1898.3 486.67l0.4 0.66-0.4-0.66m8.7-0.67v2l2-2h-2z" fill="#7b7172"/>
  <path d="m1931 486v1h5l-5-1z" fill="#b8b7af"/>
  <path d="m1904 490l3-2-3 2z" fill="#796d5f"/>
  <path d="m1920 494h1l7-5c-4.8-2-7.4 0.1-8 5z" fill="#535459"/>
  <path d="m1891 506h1l1-10v-1c-3.2-2.54 0.2-4.18 3-5-10.2-3.81-6.2 10.98-5 16z" fill="#8f8a83"/>
  <path d="m1922 493l7-2c-2.7-3.01-5.3-1-7 2z" fill="#b8b7af"/>
  <path d="m2022 489v2l2-2h-2z" fill="#535459"/>
  <path d="m1923 494l5-4-5 4z" fill="#d8d9d9"/>
  <path d="m1921 491v4h5v-1l-5-3m5 1v2l2-2h-2z" fill="#7b7172"/>
  <path d="m1899 493v3h1l1-3h-2z" fill="#a3a0a0"/>
  <path d="m1944 494l3 3-1-3h-2z" fill="#535459"/>
  <path d="m1949 496v1l4 2h1c2.8-3.58 5.6-3.95 10-4l-15 1z" fill="#b8b7af"/>
  <path d="m1956 495l-2 5 7-1-3-4h-2z" fill="#d0c7b5"/>
  <path d="m1957 496l8 2v-3l-8 1z" fill="#f9f6f4"/>
  <path d="m1889 496v6h1l-1-6z" fill="#535459"/>
  <path d="m1901 496l-1 9h1v-9z" fill="#7b7172"/>
  <path d="m2016 496v11l-16 2v1l21 2-8-3v-1c5-1.65 4.4-7.41 5-12h-2z" fill="#484441"/>
  <path d="m1939 500h8v-1l-5-2-3 3z" fill="#473228"/>
  <path d="m1928 499v2l4 1v-4l-4 1m19-1v1l7 2-7-3z" fill="#484441"/>
  <path d="m1954 500v1l11-2-11 1z" fill="#8f7c74"/>
  <path d="m1962 499v2h2v-2h-2z" fill="#484441"/>
  <path d="m1979 499l-7 12-12-3-3 4c8.8 8.06 25.2 4.25 35 0v-1h-4v-3l8-1c-2.6-6.98-10.6-6.81-17-8z" fill="#d8d9d9"/>
  <path d="m1955 501v1h7l-7-1z" fill="#484441"/>
  <path d="m1997 504v1l2 1-11 2v3l28 1v-1c-6.4 0-15.3 1.84-20-3l20-2v-2h-19z" fill="#a3a0a0"/>
  <path d="m2017 502l-4 6v1h6l-2-7z" fill="#2b2321"/>
  <path d="m1959 505l4 5-1-3 2-3-5 1z" fill="#484441"/>
  <path d="m1901 505l2 3-2-3z" fill="#7b7172"/>
  <path d="m1950 505v4h8l-8-4z" fill="#473228"/>
  <path d="m1892 506l2 3-2-3z" fill="#695952"/>
  <path d="m1952 506v2h2v-2h-2z" fill="#a3a0a0"/>
  <path d="m1958 509l2 1h1v-4l-3 3z" fill="#8f8a83"/>
  <path d="m1996 508c3.4 5.31 17 3.24 23 4-3.5-4.02-13.9-2-19-2v-1l16-2-20 1z" fill="#7b7172"/>
  <path d="m1894 509v1l6 1v-1l-6-1z" fill="#535459"/>
  <path d="m1955 511l3-1-3 1z" fill="#796d5f"/>
  <path d="m1956 510v4h1l-1-4z" fill="#a89887"/>
  <path d="m1961 510v1l5 1-5-2z" fill="#796d5f"/>
  <path d="m1969 510v1h3l-3-1z" fill="#8f8a83"/>
  <path d="m1900 511v1h4l-4-1z" fill="#535459"/>
  <path d="m1968 516v2l18 2c5.4-8.58 12.8-7 22-7-12.2-5.11-27.1 3-40 3z" fill="#bbc6cb"/>
  <path d="m2024 512v2h8v2c-3.3 0.4-9.8 0.95-12.4 3.03-6.6 5.28 4.1 11.38 8.4 11.97l-4-11v-1c6.6-0.8 17.1-2.26 21-8l-21 1z" fill="#473228"/>
  <path d="m1957 512l9 19 46 2c-4.9-21.15-38.9-10.84-55-21z" fill="#f9f6f4"/>
  <path d="m2012 512v1h4l-4-1z" fill="#8f7c74"/>
  <path d="m2008 513v1l24 2v-2l-24-1z" fill="#6d5141"/>
  <path d="m1990 513l-4 7 9-2v-4l-5-1z" fill="#b8b7af"/>
  <path d="m1992 513v1h3l-3 6 32-2v-2l-32-3z" fill="#8f7c74"/>
  <path d="m1957 516v4h1l-1-4z" fill="#695952"/>
  <path d="m1958 517c1 6.04 1.8 10.98 8 13-0.3-6.36-2.4-9.92-8-13z" fill="#d0c7b5"/>
  <path d="m2024 519v1l4 11-15 3v1h15l4 5v13h-4v3h4v3c-4.7 0.02-8.6-0.13-10 5l15-1c-1.3 11.54-13.5 4.86-18 14l24-1-1 4 6-6-11-1 3-11 16-1v-1l-28 1v-1c5.1-0.4 11.3-0.12 14-5h-6c2.5-8.5 0.8-18.44-8-22v-1h4l-2-13v-1h3l-9 1z" fill="#2b2321"/>
  <path d="m2e3 518v2l9 5h1l-4-4v-1l10-1-16-1z" fill="#d0c7b5"/>
  <path d="m2006 520v1c5.2 4.28 3.7 12.75 12 11v-1c-5.6-2.28-7.2-6.09-7-12l-5 1z" fill="#a89887"/>
  <path d="m2010 520c1.2 5.59 2.1 9.41 8 11l-2 1v1l8-3c-4.4-3.2-5.9-5.48-6-11l-8 1z" fill="#695952"/>
  <path d="m1958 520l1 4h1l-2-4z" fill="#8f7c74"/>
  <path d="m1958 523l2 3-2-3z" fill="#484441"/>
  <path d="m1960 528l1 8h1v-4l18 3v-1l-20-6z" fill="#a3a0a0"/>
  <path d="m1962 532c0.7 6.45 1.8 21.43 9 22 2.8 7.92 29.5 4 37 4v-1c-14.8 0-31.8 3.77-38.2-11.72-1.6-3.88-3.8-7.19-1.8-11.28l-6-2z" fill="#d8d9d9"/>
  <path d="m2e3 533v1h8l-8-1z" fill="#b8b7af"/>
  <path d="m1982 535v1h29v-1h-3v-1h4l-30 1z" fill="#8f8a83"/>
  <path d="m2008 534v1l14 1c0 4.35 0.3 15 5 16v1h-3v1l5-1c-3-12.55-0.9-18-16-18v-1h3-8z" fill="#695952"/>
  <path d="m1966 534c1 5.2 2.8 15.6 6.6 19.4 7.5 7.52 29.7 3.6 39.4 3.6v-2l-8-1 4-5v-7c-11.7-5.51-28.7-7.43-42-8z" fill="#f9f6f4"/>
  <path d="m1976 535v1l24-1h-24z" fill="#d0c7b5"/>
  <path d="m2024 535v1l8 17v-13l-4-5h-4z" fill="#484441"/>
  <path d="m1962 536v5h1l-1-5z" fill="#7b7172"/>
  <path d="m1984 536v1l24 5v7l-4 5 10 2-4-20h-26z" fill="#d8d9d9"/>
  <path d="m2010 536l2 20v1c11.3-0.62 4.7-17.74-2-21z" fill="#bbc6cb"/>
  <path d="m2012 536l6 19 3-1-3-18h-6z" fill="#8f7c74"/>
  <path d="m2018 536l3 18-18 4v5l15-2-2-3 11-5v-1h-3l-2-16h-4z" fill="#796d5f"/>
  <path d="m1963 538c-3.4 13.36-1.9 24.21 15 25l1 8 1-3h1c0.8 5.6 0.5 11.14 6 14.58 4.5 2.76 20.6 4.72 22-1.58-8 0.11-18.5-5.72-22-13h-5l-2-8 20 3v-2h-10v-1l13-1v-1c-7.9 0-27.6 3.6-32-4-8.6-1.41-3.7-10.53-8-16z" fill="#d0c7b5"/>
  <path d="m1961 541l-1 3 1-3z" fill="#535459"/>
  <path d="m1959 544v8h1l-1-8z" fill="#695952"/>
  <path d="m1962 544v6h2v-6h-2z" fill="#a89887"/>
  <path d="m2075 555v1l21-2-21 1z" fill="#484441"/>
  <path d="m2016 558l2 3-15 2 1 7-3-6h-1v4h-8v-3h-6c2.8 13.33 24.3 13.85 35 13.98 4.9 0.06 9.1-1.6 13 2.02l-6 3c5.5-0.5 12.9-2.53 15-8l-27 1c5.7-6.53 10.4-5.76 18-8l-2-3 3-3-13 1c2.1-4.56 5.3-4.95 10-5v-3c-6.4-1.42-10-1.08-16 2z" fill="#604338"/>
  <path d="m1961 555l2 3-2-3z" fill="#535459"/>
  <path d="m2064 558v1l16-2c-5.2-2.18-10.9-0.82-16 1z" fill="#695952"/>
  <path d="m2008 557v1h4l-4-1z" fill="#b8b7af"/>
  <path d="m1964 558l6 3v-1l-6-2z" fill="#8f8a83"/>
  <path d="m2056 558v2h8v-2h-8z" fill="#473228"/>
  <path d="m1990 560v1h10v2h-5v1h6l3 6-1-11-13 1z" fill="#a89887"/>
  <path d="m1980 560l1 5 8-1c-2.5-3.61-4.8-3.95-9-4z" fill="#a3a0a0"/>
  <path d="m1966 561v1h4l-4-1z" fill="#796d5f"/>
  <path d="m1971 562v1l7 1v-1l-7-1z" fill="#7b7172"/>
  <path d="m1982 563v5h4v-3h6v3h8v-4l-18-1z" fill="#8f7c74"/>
  <path d="m2035 563l-3 3 2 3c-7.4 1.77-13.6 0.56-18 8h19v-1l-16 1c5.8-7.76 17.4-3.05 18-14h-2z" fill="#473228"/>
  <path d="m2006 565l2 2-1 4h9v-1l-4-5h-6z" fill="#8f7c74"/>
  <path d="m1980 568l2 5-2-5z" fill="#f9f6f4"/>
  <path d="m1978 570l2 3-2-3z" fill="#7b7172"/>
  <path d="m1987 570c4.3 5.61 14.6 12.32 22 11-2.8 4.29-10.2 3.9-15 4v1l31-2v-2c-5.4 0.13-13.3 4.14-13-4l-25-8z" fill="#a89887"/>
  <path d="m1995 570v4c3.9 0.12 8.2 2.97 12 2.38 3.3-0.54 4.2-4.06 0.8-5.45-3.5-1.49-9-0.86-12.8-0.93z" fill="#473228"/>
  <path d="m2151 571l-4 7c4.2-0.92 5.1-2.95 6-7h-2z" fill="#2b2321"/>
  <path d="m1980 573v3h1l-1-3z" fill="#796d5f"/>
  <path d="m1982 576l1 4h1l-2-4z" fill="#7b7172"/>
  <path d="m2028 584l6-3c-2.5-3.49-16.5-3.98-20.6-2.31-2.1 0.87-2.2 3.75-0.1 4.66 3.6 1.53 10.3-0.38 14.7 0.65z" fill="#8f7c74"/>
  <path d="m2140 586l3 1 4-8-7 7m84-6v4c-5.5 0.95-4.8 5.5-6.4 10-3.5 9.6-5.6 20.41-17.6 19l-8 7v-12l-4-2h-2l-4 18h18v-4c8-1.04 12-3.56 13-12h5l8-24h8l3 8c7.1-10.02-5.4-12-13-12z" fill="#2b2321"/>
  <path d="m1984 581l3 2-3-2z" fill="#796d5f"/>
  <path d="m1987.7 583.33l0.6 0.34-0.6-0.34z" fill="#8f8a83"/>
  <path d="m1989 584c5.3 9.24 27.6 10 37 10v-1l-19-4 15 1-4-4-29-2z" fill="#695952"/>
  <path d="m2018 584l-1 4 5 2-15-1c6.4 7.86 18.6 2.42 22-5h-11z" fill="#473228"/>
  <path d="m2226 584l-8 24h-5c-1.7 8.03-5.2 10.49-13 12v4h-19c-1.8 4.44-4.3 6.88-9 8-2.1 6.64-6.8 2.19-9-2 4.9-3.14 13.2-19.04 14-25-3.8 1.33-5.4 2.99-6 7h-3l-8 12-6 20c-5.8 0.92-12.2 8.94-15 14l13-8v3h3c5.7-12.86 17.4-15.37 29-23l-4 13-4 13h4l-4 4v1c5.2-1.55 10.6-8.16 13-13h-5l4-16c5.1 0.02 9.4 0.16 12 5 9.6-3.46 17.5-13.52 21-23-3-6.53 2.7-21.55 8-26l6 7c2.4-4.03 0.6-6.97-1-11h-8z" fill="#442313"/>
  <path d="m2141 585l-5 9 5-9z" fill="#796d5f"/>
  <path d="m2227 588l-8 26c3.8-0.77 6.7-2.16 8-6h-1l-2 2c1.2-7.24 0.5-11.58 8-15v5h2v-8l-5-4h-2z" fill="#794e2a"/>
  <path d="m2272 588v12c4.1-3.04 5.7-10.09 0-12z" fill="#442313"/>
  <path d="m1998 592l4-1-4 1z" fill="#b1885b"/>
  <path d="m2011 636c-2.2 8.92-6.1 16.82-8 26-0.9 3.98-2.7 9.32 1 12 3.1-8.04 0.6-23.58 12-21v-10c7.9 2.77 6.9 13.75 7 21h1v-4h3l-4 7-13 39 3 3 1-3 14 7-1 5h12c9.5-21.03 31-40.6 45-58.87 4-5.24 9.7-9.81 12-16.13l-16.6 18-29.4 35c1-9.56 3.7-24.3 14-28l3-8-5-4c-5.1 1.67-7.5 7.53-10 11.96-8 14-5.3 36.36-17 48.04l9.3-41 9.7-18-4 2 1-3h-2v-2l3-3c-6.3-0.27-13.8-0.99-17-7 3.7-0.12 6.9-0.12 8-4h14l4-4 1-12c-5.1 0-12.9 1.72-16-3l-30 7v-10l10-2c0-13.04-3.9-21.49-17-23.43-2.8-0.42-7.8-2.26-10.1 0.07-7.8 7.6 1.5 27.61 5.2 35.36 1.7 3.49 3.1 6.72 6.9 8z" fill="#f6dcbb"/>
  <path d="m2002 591v1h4l-4-1z" fill="#c4a991"/>
  <path d="m1997 592v3h1l-1-3z" fill="#7b7172"/>
  <path d="m2026 595l21 10-6-9 13 8-2-7h4v5l6 3-3-10-12 1-5-4 2 2c-6 1.62-13.6-5.25-18 1z" fill="#473228"/>
  <path d="m2047 596c4.2-0.76 10.6-1.98 14.4 0.34 6.2 3.69 6.2 9.45 14.6 8.66v-1l-9-4v-5c-7.2-1.47-14.4-5.69-20 1m29-4l4 9c1.8-4.39 1-8.18-4-9z" fill="#442313"/>
  <path d="m2080 592l1 9-3-1-2 4v1l4-1v5l4 1v2l-8 4 12-4c0-7.81 2.6-19.65-8-20z" fill="#703a1c"/>
  <path d="m2246 592l-4 8h1c8.5-8.4 7 8.02 13 10 1.2-4.36 3.6-8.61 8-10l5-8h-5l-10 8c-0.6-5.26-2.7-7.59-8-8z" fill="#2b2321"/>
  <path d="m2264 600c-4.9 0.84-7.3 5.35-8 10l-4-7h-1c0 7.7-6.7 17.31-15 11h-2c-5.9 9.55-16.1 24.24-26 29v1l5-1v2c5.8-1.56 9.5-7.34 11-13 16.2 0.65 25.7-14.48 40-21v-3h-3c0.8-4.12 3.5-8.26 8-6h1l3-10c-4.2 0.72-7.6 3.97-9 8z" fill="#604338"/>
  <path d="m2134 593l-16.2 21.71-7.8 12.29h1c8-10.31 20.7-21.54 25-34h-2z" fill="#a3a0a0"/>
  <path d="m2e3 594v10h9v-2c-4.9-1.29-4.9-3.5-4-8h-5z" fill="#d0a76e"/>
  <path d="m2019 594v1l3 5h1l4-5-8-1z" fill="#c69554"/>
  <path d="m1996 595v5h1l-1-5z" fill="#a89887"/>
  <path d="m2027 595v1l11 2-11-3m32 0l1 5 4-2-5-3z" fill="#996d3c"/>
  <path d="m2083 595v8h3v-8h-3z" fill="#965f2a"/>
  <path d="m2087 595l1 16h4l4-10-9-6z" fill="#442313"/>
  <path d="m2231 595c-7 3.23-6.6 8.08-7 15 5.5-2.77 9.5-8.95 7-15z" fill="#996d3c"/>
  <path d="m1995 596v10h1l-1-10z" fill="#796d5f"/>
  <path d="m2024 596l6 10-6-2 1.5 9.82-5.5 10.18c8.6-0.03 9.1-4.27 13-11 2 4.38 3.3 6.48 8 8l2-7 23-3 2 7v3l-3 3c6.8-3.36 10-8.59 10-16-12-0.78-24.3 0.04-36 5l-7-14 6 2c-1.8-5.17-9.2-4.79-14-5z" fill="#d0a76e"/>
  <path d="m2041 596l6 9-11-4v1l4 5-3-2h-1l3 8c9.8-3.04 23.3-6.92 33-5v-1l-16-4v3l-15-10z" fill="#c08937"/>
  <path d="m2243 600c6.6 0.66 7 6.39 7 12 2.2-5.23-0.3-21.93-7-12z" fill="#794e2a"/>
  <path d="m2003 597c1 3.46 2.5 4.48 6 5l-6-5z" fill="#965f2a"/>
  <path d="m2023 597l4 9v-8l-4-1z" fill="#b1885b"/>
  <path d="m2052 597v8l4 1v-3l3 1-3-2v-5h-4z" fill="#794e2a"/>
  <path d="m2012 598l4 6-1-6h-3z" fill="#c69554"/>
  <path d="m2038 598l2 3v-3h-2z" fill="#794e2a"/>
  <path d="m2062 598l4 6-4-6z" fill="#c69554"/>
  <path d="m2025 599l5 7c-0.1-4.17-0.8-6.07-5-7z" fill="#965f2a"/>
  <path d="m2032 599c1.2 4.19 3.8 6.85 8 8-1.2-4.31-3.8-6.54-8-8z" fill="#703a1c"/>
  <path d="m2242 602l3 3 3-1v9h2c0-3.65-1.9-19.37-8-11m-178-2l3 3-3-3z" fill="#965f2a"/>
  <path d="m2168 608l-8 4v1l5-1-3 12h1l5-12h3l6-12c-4.2 1.57-7.7 3.47-9 8z" fill="#604338"/>
  <path d="m2261 608c4.3-1.18 6.8-3.72 8-8-5 0.92-7.4 2.84-8 8z" fill="#965f2a"/>
  <path d="m2270 600l-6 8 8-8h-2z" fill="#2b2321"/>
  <path d="m2062 601l-2 4v1h4l-2-5z" fill="#794e2a"/>
  <path d="m2242 602c-2.1 6.69-2 10.76 6 11v-9l-3 1-3-3z" fill="#c69554"/>
  <path d="m2230 603l-2 5 4-5h-2z" fill="#442313"/>
  <path d="m2241 603l-1 3 1-3z" fill="#996d3c"/>
  <path d="m2079 604l-9 2v1l8-1v4h4l-2 2v1l4-1v-2l-4-1-1-5z" fill="#965f2a"/>
  <path d="m2073 607c2.2 3.91 2.3 6.8-1 10v1l10-8h-4v-4l-5 1z" fill="#b1885b"/>
  <path d="m2238 606v2h2v-2h-2z" fill="#473228"/>
  <path d="m1996 608l1 5h1l-2-5z" fill="#695952"/>
  <path d="m1997 608v3h1l-1-3z" fill="#b8b7af"/>
  <path d="m2148 612l15-1c-4.9-2.59-11.1-3.93-15 1z" fill="#442313"/>
  <path d="m2238 608l-2 8 12-2v-1l-10-5z" fill="#996d3c"/>
  <path d="m1998.3 611.67l0.4 0.66-0.4-0.66z" fill="#b8b7af"/>
  <path d="m2043 614l-2 7-8-8c-4.7 5.74-4.4 10.9-13 11l4-8-8 2v10c9 0 22.2-2.68 30-7 1.1 5.15 11.6 3 16 3l-1 12-4 4h-14l-8 4c2.1 6.56 11.1 6.88 17 7l-3 3 1 5 4-2v3h1l-1-12-10-2v-1l18-4.6 6-19.4v-3l-2-7-23 3z" fill="#e1bc84"/>
  <path d="m2146 616l3-1-2 7 3-3 9-3h1l-2 11h1l6-15-14 6 2-7-7 5z" fill="#965f2a"/>
  <path d="m2119 612l-2 4 2-4z" fill="#796d5f"/>
  <path d="m2152 612l-1 6 9-3v-1l-6-2h-2z" fill="#703a1c"/>
  <path d="m1998 613v3h1l-1-3z" fill="#7b7172"/>
  <path d="m1999.3 614.67l0.4 0.66-0.4-0.66z" fill="#d0c7b5"/>
  <path d="m2144 614v2h2v-2h-2z" fill="#473228"/>
  <path d="m2124 628v1l12 3 7-11c2.4 3.86 4.3 7.23 9 8l-8 19c9.2-3.28 15.4-23 16-32h-1l-12 6 2-7-25 13z" fill="#c08937"/>
  <path d="m1999 616v3h1l-1-3z" fill="#695952"/>
  <path d="m2136 618c2.7 4.24 6 1.62 8-2l-8 2z" fill="#442313"/>
  <path d="m2000.3 619.67l0.4 0.66-0.4-0.66z" fill="#7b7172"/>
  <path d="m2001.3 619.67l0.4 0.66-0.4-0.66z" fill="#b8b7af"/>
  <path d="m2071 619l-2 3 2-3z" fill="#794e2a"/>
  <path d="m2128 623v1l8-3-8 2z" fill="#473228"/>
  <path d="m2120 630l21-8c-5.8-2.89-17.5 3-21 8z" fill="#794e2a"/>
  <path d="m2001 621v3h1l-1-3z" fill="#8f8a83"/>
  <path d="m2143 621l-7 11c-8.6-2.12-17.9-5.77-18 7h10c1.8 5.07 7.4 3.57 10.3 7.5 2.9 4.01-3.9 11.58-5.3 15.5 10-5.64 16.4-22.43 19-33l-9-8z" fill="#c69554"/>
  <path d="m2110 622v2l2-2h-2m-108 2v3h1l-1-3z" fill="#7b7172"/>
  <path d="m2088 632h-5v8l-15 1v1l21 3 8-5v-1l-5-1v-6c4.3-1.17 7.8-3.64 9-8-5.9 0.07-11 1.94-13 8z" fill="#442313"/>
  <path d="m2112 624v2h2v-2h-2z" fill="#473228"/>
  <path d="m2122 628l6-3c-3.1-0.82-4.5 0.36-6 3z" fill="#442313"/>
  <path d="m2226 624l-2 3 2-3z" fill="#473228"/>
  <path d="m2096 644h1l13-18c-6.6 3.12-12.9 10.72-14 18z" fill="#b8b7af"/>
  <path d="m2159 626l-12 22h1l6-4 5-18z" fill="#703a1c"/>
  <path d="m2003 627l2 3-2-3z" fill="#8f7c74"/>
  <path d="m2062 628v7h1l1-7h-2z" fill="#996d3c"/>
  <path d="m2005.3 630.67l0.4 0.66-0.4-0.66z" fill="#8f8a83"/>
  <path d="m2136 640h3l1-10c-4.2 2.29-4 5.58-4 10z" fill="#e1bc84"/>
  <path d="m2160 645v3c5.6-0.87 11.4-4.46 13-10 4.1-0.62 6.5-3.13 10 0l1-8-24 15z" fill="#794e2a"/>
  <path d="m2006.3 632.67l0.4 0.66-0.4-0.66z" fill="#8f7c74"/>
  <path d="m2105 632l-1 4h1v-4z" fill="#484441"/>
  <path d="m2224 632c-3.7 8.62-15.7 14.05-13 24h2l21-24h-10z" fill="#442313"/>
  <path d="m2117 634l-11 5v1h13l-2-6z" fill="#535459"/>
  <path d="m2063 635c-0.7 9.4-11.9 7.75-19 10v1l10 2 2 8 2-5-3 1c1.3-6.22 5.4-6 11-6l-6 10 2-2 11 3-1 12c5.6-4.19 12.6-11.68 12-19l-3 2-9-1-3-3 1-4-3-4h-3l-1-5z" fill="#b1885b"/>
  <path d="m2173 638c-3.1 6.44-14.2 13.07-21 15v5l-8 6 5-2-1 8c16.7-1.3 15.1-26.02 32-30l-4 8c4.9-3.69 6-7.02 6-13l-9 3z" fill="#965f2a"/>
  <path d="m2008 636l1 4h1l-2-4z" fill="#796d5f"/>
  <path d="m2010 636v4h1l-1-4z" fill="#c4a991"/>
  <path d="m2008 637l-1 6h1v-6z" fill="#473228"/>
  <path d="m2101 638l-4 7 3-1 1-6z" fill="#484441"/>
  <path d="m2100 644c4.5 0.53 9.4-0.3 11-5l-11 5z" fill="#695952"/>
  <path d="m2111 639l-3 4v1h6l3-4-6-1z" fill="#8f7c74"/>
  <path d="m2117 654l1-3c6.9-1.12 5.7-6.04 3-11l7 1c-8.3-9.46-13.3 6.21-11 13z" fill="#7b7172"/>
  <path d="m2008.3 640.67l0.4 0.66-0.4-0.66z" fill="#8f8a83"/>
  <path d="m2067 640l3 4-1 4h19l-21-8z" fill="#794e2a"/>
  <path d="m2114 640v4h-18l-6 9 5-5 3 5 9-7c-1.5 7.95 0.1 18.1-6 21.5-2.5 1.41-3.3 4.37-6 2.5l-1 4 2 4 8-6h1l13-12v-4l-3-2h-1l-3 5v-14h1l3 3 2-8h-3z" fill="#8f8a83"/>
  <path d="m2121 640c2 5.1 3.3 9.12-3 11l2 9-1-4 14-8-3-6-9-2z" fill="#695952"/>
  <path d="m2155 653h1l4-8 8-4c-8.1-2.48-11.1 5.71-13 12z" fill="#703a1c"/>
  <path d="m2164 656h1c2.1-3.68 3.9-9.08 8-5l7-11c-8 1.08-15.4 7.86-16 16z" fill="#d0a76e"/>
  <path d="m2089 645l-20-3v1c10.4 1.27 17.5 4.16 27-1-3.2-1.06-5.2 0.2-7 3z" fill="#473228"/>
  <path d="m2093 644l3-1-3 1z" fill="#a89887"/>
  <path d="m2007 643l-1 3 1-3z" fill="#8f7c74"/>
  <path d="m2016 643v13h-6v10h1c0.5-6.35 5.9-7.48 11-10v16h1v-5c3.6-1.04 3.8-3.53 4-7h-3v4c-2.1-7.04 0.8-19.16-8-21z" fill="#e1bc84"/>
  <path d="m2132 643v1l4 1v-1l-4-1z" fill="#6d5141"/>
  <path d="m2208 644v1l2 5h1l2-7-5 1z" fill="#8f7c74"/>
  <path d="m2111 645v14l3-5h1l3 2-2-8-5-3z" fill="#b8b7af"/>
  <path d="m2174 648l-3 11 9-3h-4l5-11-7 3z" fill="#703a1c"/>
  <path d="m2206 645v3h1l1-3h-2z" fill="#6d5141"/>
  <path d="m2208 645c-4.1 5.9-4 12.04-4 19h1l5-19h-2z" fill="#c4a991"/>
  <path d="m2055 652l3 2h1l2-7 1 3h1l3-4c-5.7 0-10.2-0.7-11 6z" fill="#794e2a"/>
  <path d="m2072 647v4l9 1c1.8-1.5 2-1.16 3 1l7-7-19 1z" fill="#965f2a"/>
  <path d="m2104 646l-6 7-3-5-6 4-4 9 5-2-2 9 3-1c0.4 3.52 0.1 5.17-3 7 0 6 0.3 11.36-4 16v1l2 2h2l4-3 4-20c10.1 5.54 10.4-19.36 11-24h-3z" fill="#bbc6cb"/>
  <path d="m2139 646v4h1l-1-4z" fill="#794e2a"/>
  <path d="m2060 647l-2 10h1l3-10h-2z" fill="#442313"/>
  <path d="m2144 648l-4 8 7-8h-3z" fill="#794e2a"/>
  <path d="m2155 674c8.3-1.72 16-18.04 17-26-7.8 2.49-16.8 18.12-17 26z" fill="#e1bc84"/>
  <path d="m2204 648l-1 10h1v-10z" fill="#604338"/>
  <path d="m2004.3 649.67l0.4 0.66-0.4-0.66z" fill="#a89887"/>
  <path d="m2138 650l-2 6h1l1-6z" fill="#796d5f"/>
  <path d="m2209 650c-0.6 3.13-1.6 5.23 2 6l-2-6m-40 9l4 3h1l4-4-7 1 3-8-5 8z" fill="#794e2a"/>
  <path d="m2003 652l-1 4h1v-4z" fill="#8f8a83"/>
  <path d="m2004 674l-4-2-8 32c11.8-0.03 10 0.94 17 9l-3 1 4 4 3-8-2-6-11-2 10-46h6c-1.3-4.02-7-5.74-8.9-0.85-1.9 4.74-1.7 13.31-3.1 18.85z" fill="#d8d9d9"/>
  <path d="m2057 654l-8 14 4-1c2.6-3.94 6.4-8.29 4-13z" fill="#796d5f"/>
  <path d="m2062 654c-0.1 3.94 1.1 5.36 5 6l-3 8c-10.6 2.27-13.5 18.9-14 28l4-3c-2.4-7.32 3.6-17.52 10-21 0.9 5.03 4.8 4.01 7.2-0.02 2.1-3.68 1.6-10.73 1.8-14.98l-11-3z" fill="#e1bc84"/>
  <path d="m2151 654l-7 8 8-4-1-4z" fill="#604338"/>
  <path d="m2001 656l-13 32h1l8.9-19 4.1-5h1l1-8h-3z" fill="#d0c7b5"/>
  <path d="m2019 656c-1.9 2.87-4.9 2.34-7 4.74-8 9.25-12 29.43-12 41.26h6v-1h-5l5-21h3c1.1-8.08 2.4-19.69 12-20v12h1v-16h-3z" fill="#d0a76e"/>
  <path d="m2134 656l-1 4h1v-4z" fill="#796d5f"/>
  <path d="m2138 656l-2 2v1c2.2-0.47 3.1-0.86 2-3z" fill="#996d3c"/>
  <path d="m2167 656l1 9 5-5-3-4h-3z" fill="#9a7756"/>
  <path d="m2207 656l-2 8h1l3-8h-2z" fill="#8f7c74"/>
  <path d="m2208 659l3-3-3 3z" fill="#473228"/>
  <path d="m2166 658l-1 10c3.7-2.65 3.2-6.33 1-10z" fill="#c69554"/>
  <path d="m2202 658c0 14.14-14 21.74-9 36h-6l-1 6 5-4v6c5.5-1.81 3.9-10.1 6-15l-5 1c4.5-9.28 14.6-19.1 10-30z" fill="#796d5f"/>
  <path d="m2203 658v8h1l-1-8z" fill="#8f7c74"/>
  <path d="m2083 659l-20 29c7.8-4.57 19.7-20.29 22-29h-2z" fill="#796d5f"/>
  <path d="m2068 684l4 6h-4l1 9c-6 0.48-14.9 12.19-8.7 17.4 3.1 2.6 8.1 0.89 11.7 0.6 0.1-8.65 1.9-19.44 12-21l4-22c3.8-1.35 5-6.09 0-6l2-9c-8.5 2.89-19 16.72-22 25z" fill="#d8d9d9"/>
  <path d="m2136 659l-2 5 4-5h-2m55 1l-3 14h1l6-15-4 1z" fill="#442313"/>
  <path d="m2013 664h1c6.4-3.91 6 7.26 6 11h1v-15c-3.9 0.05-6.7-0.05-8 4z" fill="#c08937"/>
  <path d="m2115 660l-5 9 8-9h-3z" fill="#484441"/>
  <path d="m2132 660l-1 4h3l-2-4z" fill="#9a7756"/>
  <path d="m2077 664l3-3-3 3z" fill="#c4a991"/>
  <path d="m2172 664l4-3-4 3z" fill="#473228"/>
  <path d="m2188 662l3 4 1-5-4 1z" fill="#796d5f"/>
  <path d="m2001 662l-9 22 6-10 1 3h1l1-15z" fill="#9a7756"/>
  <path d="m2009 680h-3l-3 13h1c1.5-3.82 3-5.94 7-7-0.3-4.4-1.3-7.62 3-10l4-10 1 10c1.2-2.97 1.5-17.94-5.1-12.66-3.2 2.52-4.6 12.75-4.9 16.66z" fill="#794e2a"/>
  <path d="m2137 672l18 1 2-7-9 4 1-8c-5.8 1.62-9 4.89-12 10z" fill="#c69554"/>
  <path d="m2130 663l3 3-3-3z" fill="#535459"/>
  <path d="m2001 664v8h1l-1-8z" fill="#e1bc84"/>
  <path d="m2140 664l-9 8v1l22 2-3 2v1l8-3v-1l-21-2 5-8h-2z" fill="#695952"/>
  <path d="m2168 665v1l4-1h-4z" fill="#6d5141"/>
  <path d="m2187.3 664.67l0.4 0.66-0.4-0.66z" fill="#695952"/>
  <path d="m2188 664l-3 13h1l4-13h-2z" fill="#d0a76e"/>
  <path d="m2014 676c-4.9 1.64-3.6 5.66-3 10-7.1 1.04-8.7 8.72-9 15l9 1c6.7-12.65 7.6-22.01 7-36-4.2 2.29-4 5.58-4 10z" fill="#703a1c"/>
  <path d="m2051 666l-3 8h1l2-8z" fill="#794e2a"/>
  <path d="m2177 685l8 1v-1h-5c0.6-7.75-0.2-13.84 7-18-9.8-2.68-9.6 12.04-10 18z" fill="#442313"/>
  <path d="m2166.7 667.33l0.6 0.34-0.6-0.34z" fill="#6d5141"/>
  <path d="m2105 669l1 8h1l3-9-5 1m55 2v1l6-4-6 3z" fill="#796d5f"/>
  <path d="m2181 676h2l3-8c-4.6 1.28-5.7 3.35-5 8z" fill="#703a1c"/>
  <path d="m2046 669l-2 7h1l3-7h-2z" fill="#c4a991"/>
  <path d="m2050 669v3h1l-1-3z" fill="#c69554"/>
  <path d="m2096 678l-2-6h-1l-1 13c2.1 3.65-2 5.14-4 8h-2l-3-2v8l5 5-5-2-8 13 13-2 3-16-3 1c2.3-3.02 4.8-0.81 8 0l-2-2v-1l1-4 4-1 5-20-8 8z" fill="#b8b7af"/>
  <path d="m2187 670l-3 15h1l2-15z" fill="#6d5141"/>
  <path d="m2032 672v8c-11.9-0.9-11.7 15.02-15 25 11.8 6.64 8.5-3.32 17-6l3-11h-5v-5h4c2.4-5.98 4.4-10.54-4-11z" fill="#f9f6f4"/>
  <path d="m2046 672l-7 34h1l8-34h-2z" fill="#604338"/>
  <path d="m2061 672l-9 20c6.2-2.89 11.8-9.55 14-16l-2-4h-3z" fill="#c69554"/>
  <path d="m2105 672l-6 18-4 1-1 4v1h4c1.6-7.58 10.1-16.14 7-24z" fill="#8f7c74"/>
  <path d="m2126.7 673.33l0.6 0.34-0.6-0.34z" fill="#484441"/>
  <path d="m2128 673v1h16l-16-1z" fill="#b8b7af"/>
  <path d="m1998 674v6h1l-1-6z" fill="#794e2a"/>
  <path d="m2125 674c1 4.58 7.1 3 11 3v-1l-11-2z" fill="#695952"/>
  <path d="m2126 674l6 2v-1l-6-1z" fill="#a3a0a0"/>
  <path d="m2128 674v1h8l-8-1z" fill="#f9f6f4"/>
  <path d="m2132 675v1l18 1c-3.9-5.08-12.5-2.7-18-2z" fill="#d8d9d9"/>
  <path d="m2184 674l-3 11h3v-11z" fill="#f6dcbb"/>
  <path d="m2150 675v2h3v-2h-3z" fill="#a3a0a0"/>
  <path d="m1991 676l-1 4h1v-4z" fill="#796d5f"/>
  <path d="m2019 676v6h1l-1-6z" fill="#c69554"/>
  <path d="m2043 676v7h1l-1-7z" fill="#a89887"/>
  <path d="m2136 676v1h10l-10-1m45 0v4h1l-1-4z" fill="#c4a991"/>
  <path d="m1996 677l-10 33c8.4-5.28 10.5-23.94 12-33h-2z" fill="#2b2321"/>
  <path d="m2104 677v3h1l1-3h-2z" fill="#695952"/>
  <path d="m2125 678l21 6 7-6h-28z" fill="#473228"/>
  <path d="m2146 677v1h4l-4-1z" fill="#8f8a83"/>
  <path d="m2197 682c-0.8 2.62-1.6 3.77-4 2l-1 4 5-1-2.6 11.87-4.4 9.13c-4 1.34-4 4.06-4 8h1c4.2-7.32 10.2-13.3 14.4-20.45 3-5.05 4.6-11.77 10.6-13.55-1.6-9.59-9.8-0.73-15 0z" fill="#484441"/>
  <path d="m2046 678v5h1l-1-5z" fill="#c69554"/>
  <path d="m2184 678v5h1l-1-5z" fill="#a89887"/>
  <path d="m2112 691l9.3-7.97 20.7-0.03c-11.4-4.79-24.8-5.29-30 8z" fill="#535459"/>
  <path d="m1997 680l-1 10h1v-10z" fill="#796d5f"/>
  <path d="m2105 680l-7 16h1l6-16z" fill="#695952"/>
  <path d="m2180 680v5h1l-1-5z" fill="#7b7172"/>
  <path d="m1988.3 682.67l0.4 0.66-0.4-0.66z" fill="#8f7c74"/>
  <path d="m2018 682v6h1l-1-6z" fill="#c69554"/>
  <path d="m2109 700l13-1v2h-13v1h14v-4c6.8-0.46 16-6.88 19-13-6.4 0-14.7-3.99-20.7-2.4-6.8 1.81-10 11.62-12.3 17.4z" fill="#bbc6cb"/>
  <path d="m2131 684v1c4.8 0 13.4 2.57 15-3l-15 2z" fill="#8f8a83"/>
  <path d="m2200 692h1l1-6 4-4c-6.5 0.74-6.7 4.24-6 10z" fill="#7b7172"/>
  <path d="m1991 683c-3.9 6.91-4.9 15.11-5 23h1l7-23h-3z" fill="#6d5141"/>
  <path d="m2045 683v7h1l-1-7z" fill="#c69554"/>
  <path d="m2069 683c-3.8 3.26-4.9 6.03-5 11h-1c-2.7-2.29-5.4 1.91-7 4.17-4.4 6.11-7.9 12.98-11 19.83h16c-3.7-6.84-0.6-17.61 8-19l-1-9h4l-3-7z" fill="#f9f6f4"/>
  <path d="m2207 683c-3.3 8.79-8.2 16.5-15 23v1l11-7v-7h3l1-10z" fill="#473228"/>
  <path d="m1987 684l-3 15h1l2-15m54 0v7h1l-1-7z" fill="#c4a991"/>
  <path d="m2091 685l3 4v-4h-3z" fill="#8f8a83"/>
  <path d="m2174 685v7h1l4-6-5-1z" fill="#473228"/>
  <path d="m2062 686l-14 20h1l2-4h1l-1 5h1c2.3-6.23 12.2-14.43 10-21z" fill="#b1885b"/>
  <path d="m2176 686l3 4v-4h-3z" fill="#a3a0a0"/>
  <path d="m2179 686l-6 29c4-0.3 5.8-1.12 7-5h-1l-3 3 3-27z" fill="#535459"/>
  <path d="m2017 688l-1 4h1v-4z" fill="#a89887"/>
  <path d="m2044 688v3h1l-1-3z" fill="#9a7756"/>
  <path d="m2063 688v6h1l-1-6z" fill="#f6dcbb"/>
  <path d="m2139 688v2l2-2h-2z" fill="#484441"/>
  <path d="m2175 688v4h1l1-4h-2z" fill="#796d5f"/>
  <path d="m2189 688l-1 3 1-3z" fill="#695952"/>
  <path d="m2190 688l-2 6h5l-3-6z" fill="#a89887"/>
  <path d="m1995 690l-3 11h1l2-11z" fill="#695952"/>
  <path d="m2136 693l3-3-3 3z" fill="#473228"/>
  <path d="m2176 690v1l2 3h1v-4h-3z" fill="#bbc6cb"/>
  <path d="m1984 691l-2 5 2-5z" fill="#484441"/>
  <path d="m2002 691l-1 10h1v-10z" fill="#b1885b"/>
  <path d="m2043 691v5h1l-1-5z" fill="#a89887"/>
  <path d="m2176 691l-4 21h1l5-21h-2z" fill="#d8d9d9"/>
  <path d="m1995 692v6h1l-1-6z" fill="#c4a991"/>
  <path d="m2040 692v4h1l-1-4z" fill="#996d3c"/>
  <path d="m2110 692l-2 11h5v3l7-2v-1l-11-1 3-10h-2z" fill="#535459"/>
  <path d="m2133 694l3-1-3 1z" fill="#7b7172"/>
  <path d="m2174 692v4h1l-1-4z" fill="#a3a0a0"/>
  <path d="m2187 692l-3 9 3-9z" fill="#535459"/>
  <path d="m2014 693v3h1l1-3h-2z" fill="#b1885b"/>
  <path d="m2111 693l-1 3 1-3z" fill="#7b7172"/>
  <path d="m1986 694l-3 18h1c1.5-4.86 4.5-13.42 2-18z" fill="#996d3c"/>
  <path d="m2084 694c-8.5 6.88-11.9 10.31-12 22l12-12v-10z" fill="#bbc6cb"/>
  <path d="m2131 694v2l2-2h-2z" fill="#796d5f"/>
  <path d="m2088 698l3-1c-0.6 5.1-6.3 11.24-1 15l6-14c-3.1-1.09-6.9-4.91-8 0z" fill="#8f7c74"/>
  <path d="m1982 696v3h1l-1-3z" fill="#7b7172"/>
  <path d="m1983 696l-3 26 7-1v-1c-8-4.46-1.2-17.06-4-24z" fill="#d0c7b5"/>
  <path d="m2013.3 696.67l0.4 0.66-0.4-0.66z" fill="#c69554"/>
  <path d="m2096 696l-6 16 8-16h-2z" fill="#484441"/>
  <path d="m2128 698l3-2-3 2z" fill="#535459"/>
  <path d="m2173 696v3h1l-1-3z" fill="#8f7c74"/>
  <path d="m2189 696c-4.4 7.6-9.7 18.89-19 19v15l4-10h1l-2 12 3 8h1c0-9.42-1.5-22.68 8-28l5-5 1-11h-2z" fill="#8f8a83"/>
  <path d="m2123 701h1l4-2c-2.6-1.5-4.4-1.01-5 2z" fill="#7b7172"/>
  <path d="m2038 699v5h1l-1-5z" fill="#a89887"/>
  <path d="m2082 702l6 2c-0.7-4.06-3.4-5.97-6-2z" fill="#8f8a83"/>
  <path d="m2109 700v1h13v-2l-13 1z" fill="#f9f6f4"/>
  <path d="m2172 700l-1 8h1v-8z" fill="#7b7172"/>
  <path d="m2175.3 700.67l0.4 0.66-0.4-0.66z" fill="#a3a0a0"/>
  <path d="m1980 701v6h1l-1-6z" fill="#8f7c74"/>
  <path d="m2006 703l5 1-5-1z" fill="#6d5141"/>
  <path d="m2041 701v3h1l-1-3z" fill="#a89887"/>
  <path d="m1990 702v4h2v-4h-2z" fill="#535459"/>
  <path d="m2051 702l-9 13 3 1 6-14z" fill="#6d5141"/>
  <path d="m2114 702v1h6l-6-1z" fill="#8f8a83"/>
  <path d="m2136 705l4-3-4 3z" fill="#7b7172"/>
  <path d="m2140 702l-6 2c2.2 3.29 4.6 2.39 8 1l-2-3z" fill="#535459"/>
  <path d="m1992 704l-8 16 12-2v-5l11 5-1-4 3-1c-6.2-9.37-5.3-9.1-17-9z" fill="#f9f6f4"/>
  <path d="m2110 703v5l5-1-2-4h-3z" fill="#2b2321"/>
  <path d="m2038 704l-2 11h1c1.9-3.73 3.3-7.25 1-11z" fill="#996d3c"/>
  <path d="m2040.3 704.67l0.4 0.66-0.4-0.66z" fill="#c4a991"/>
  <path d="m2047 704v3h1l-1-3z" fill="#d0c7b5"/>
  <path d="m2180 704v6h1l1-6h-2z" fill="#484441"/>
  <path d="m1988 710l4-4-4 4z" fill="#a89887"/>
  <path d="m2014 706l-4 11h1l3-4 4-3-4-4z" fill="#c4a991"/>
  <path d="m1985 707l-1 7 4-4-3-3z" fill="#604338"/>
  <path d="m2185 712c-6.4 2.19-7 8.05-7 14h1c0.1-5.59 6.1-15.32 11-18-3.4-1.12-4.5 0.78-5 4z" fill="#695952"/>
  <path d="m2036 708v4h1l-1-4z" fill="#c4a991"/>
  <path d="m2171 708l2 7-2-7z" fill="#b8b7af"/>
  <path d="m1979 709v4h1l-1-4m191 0v6h1l-1-6z" fill="#535459"/>
  <path d="m2014 710v3l-4 5h4l2-8h-2z" fill="#9a7756"/>
  <path d="m2016 710l8 9-4-9h-4z" fill="#c69554"/>
  <path d="m2043 710v2l2-2h-2z" fill="#c4a991"/>
  <path d="m2020 711c1.9 5.46 4.1 7.82 10 8v-1h-3l1-5-8-2z" fill="#e1bc84"/>
  <path d="m2014 718h-4v1l14 1c-3-3.97-8.5-11.11-10-2z" fill="#473228"/>
  <path d="m2035 712l2 4-2-4z" fill="#c4a991"/>
  <path d="m2042.3 712.67l0.4 0.66-0.4-0.66z" fill="#a89887"/>
  <path d="m2046 712l-2 7h20v-1h-19l1-6z" fill="#d0c7b5"/>
  <path d="m2117 712v3h11l-11-3z" fill="#442313"/>
  <path d="m1979 713v9h1l-1-9z" fill="#7b7172"/>
  <path d="m1996 713v5l-6 2h6l4-6-4-1m-13 1v5l3-5h-3z" fill="#a89887"/>
  <path d="m1997 714v4h5l-5-4z" fill="#796d5f"/>
  <path d="m2040 714l-1 4-15 1v1c7.2-0.02 13.8 0.74 18-6h-2z" fill="#b1885b"/>
  <path d="m2076 714v1h8l-8-1z" fill="#796d5f"/>
  <path d="m2e3 715v1l2 3h6v-1l-8-3z" fill="#a3a0a0"/>
  <path d="m1964 758l4 2v2c-3.2 2.1-2.8 4.45-2 8h1l2-8 14 12c6.8 2.18 2.9 8.78 2 14l-9-2c-3.2 5.4-5.1 10.19-12 10l-10-1-3 18h1v-2h1c0.7 3.35 1.6 4.41 5 5l2 14-5-1-1 5 17-9-1-6c5.3 0.23 10.7 2.25 14-3-6.7-5.26 10.5-20.61 11.6-26.17 0.7-3.39-2.8-6.64-3.6-9.83l18 3h-5v1l4 2 5-1 3 2-9-10-6 2c-0.1-7.68-4.4-11.64-12-12v-6l11 1 2 2 9-19-8 6h-4c-2.3 8.76-10 6.71-15 1l-2 7c-7.9-4.24-16.2-17.48-7.7-25.28 5.9-5.5 11.3-4.78 18.7-4.72v5h3c1.3-8.14 24.8-5.84 32-5v4c13.4-8.34 26.4-4.44 41-1 3.5-14.81 24.6-6.94 34-5v1l-4 4 10 2c9.1-3.87 16.5 1.78 24-6v-1h-3v-1h2v-1c-3.7 0.8-3 3.64-3 7-6.2-0.07-16.1-1-20-6h5c-2.5-3.32-7.9-4.68-12-4.94-12.6-0.81-28.6-3.09-41-1.77-5.4 0.57-17.6 3.56-18-4.29-5.8 1.68-9.6 4.59-16 4.91-18.2 0.9-44.5-5.86-58.9 9.87-3.9 4.29-5.5 10.55-5 16.22 0.4 4.63 3.4 8.1-0.1 12z" fill="#2b2321"/>
  <path d="m2072 716v1l4-1h-4z" fill="#7b7172"/>
  <path d="m2104 721c8.6-3.24 17.2-4.88 25 2h-4v2h4l-1 5 2-5h4v-3h-4l1-5c-7.9-1.45-21.9-3.87-27 4z" fill="#604338"/>
  <path d="m2117 715v1l6 1-6-2z" fill="#7b7172"/>
  <path d="m2043 716v3h1l-1-3z" fill="#9a7756"/>
  <path d="m2178 736h1l7-20c-9.4 2.06-8 11.95-8 20z" fill="#2b2321"/>
  <path d="m2064 718v1l8-1h-8z" fill="#484441"/>
  <path d="m2107 719v1l22 3-17-6-5 2z" fill="#8f7c74"/>
  <path d="m2112 717c3 4.3 8.2 3.99 13 4l-13-4z" fill="#a89887"/>
  <path d="m2169 717v22h1l5-19h-1l-4 10-1-13z" fill="#2b2321"/>
  <path d="m2003 719v1l7-1h-7z" fill="#535459"/>
  <path d="m1976 721v1c5.8 2.93 11.4 0.23 17-2l-17 1z" fill="#484441"/>
  <path d="m2044 719v1h9l-9-1z" fill="#8f7c74"/>
  <path d="m2053 719v1h8l-8-1z" fill="#484441"/>
  <path d="m2106 720v1l23 7c-1.1-5.24-8.7-4-13-4v-1h4l-14-3z" fill="#8f8a83"/>
  <path d="m2107 721l3 2-3-2z" fill="#796d5f"/>
  <path d="m1968 730l10-8-10 8z" fill="#7b7172"/>
  <path d="m2175 722v4h1l-1-4z" fill="#695952"/>
  <path d="m2088 723v1l11 2c-2.5-3.82-6.8-3-11-3z" fill="#473228"/>
  <path d="m2116 723v1h4l-4-1z" fill="#d0c7b5"/>
  <path d="m2072 725v1l27 2c-4.8-6.56-20-4.68-27-3z" fill="#7b7172"/>
  <path d="m2075 725v1l13 2 10.4 8.02-4.4 10.98h1c2.3-5.13 8-8.76 13-11v-4c-4.7 1.42-8.2 1.96-8-4l-25-3z" fill="#a3a0a0"/>
  <path d="m2110 726c2.4 4.54 16.4 8.18 20 4l-7-2h5l-18-2z" fill="#473228"/>
  <path d="m1965 726l1 8v-7h5l-6-1z" fill="#484441"/>
  <path d="m2072 729l11-1c-2.8-2.75-10-3.68-11 1z" fill="#d8d9d9"/>
  <path d="m2099 726l2 7 3-5v-1l-5-1z" fill="#484441"/>
  <path d="m2177 726l1 21h1l-2-21z" fill="#535459"/>
  <path d="m1966 727l1 4 1-4h-2z" fill="#a3a0a0"/>
  <path d="m2065 732l-1 10 13-1v-7c7.1 2.92 4.9 12.88 9.7 18.14 2.5 2.69 6.4 4.13 7.3-0.14l5 1-2 8c16.3-2.5 0-14.01-6-17l2 7c-6.5-1.56-7.9-5.79-8-12l6 4 7-7c-6.2-3.15-14.4-10.11-21.8-8.71-4.2 0.77-6.9 4.12-11.2 4.71z" fill="#f9f6f4"/>
  <path d="m1977 734l10-5c-4.5-1.6-8 1-10 5z" fill="#7b7172"/>
  <path d="m1997 734h1l5-5c-4.3-1.62-5.7 1.02-6 5z" fill="#484441"/>
  <path d="m2020 731l6-2c-2.9-1.1-4.4-0.56-6 2z" fill="#535459"/>
  <path d="m2034 728v1h6l-6-1z" fill="#8f8a83"/>
  <path d="m2040 728v1h17l-17-1z" fill="#695952"/>
  <path d="m2057 728v1h3l-3-1z" fill="#a89887"/>
  <path d="m2070 728v2h2v-2h-2z" fill="#8f8a83"/>
  <path d="m2084 728v2h4v-2h-4z" fill="#d8d9d9"/>
  <path d="m2123 728l5 3v-3h-5z" fill="#8f7c74"/>
  <path d="m1985 729v1l6 2c1.4-3.6-3.5-2.99-6-3z" fill="#a3a0a0"/>
  <path d="m1992 729l-10 25h4c4.2-7.21 9.4-3.16 12 3h1l1-6 4-2-12-3 5-12-3-5h-2z" fill="#604338"/>
  <path d="m2e3 729v1h5v4h1l1-5h-7z" fill="#8f7c74"/>
  <path d="m2007 729l-2 9-8 7c8.9-1.73 16.4-8.2 23-14l-13-2z" fill="#703a1c"/>
  <path d="m2022 729v1l3 2c1-2.51-0.6-2.71-3-3z" fill="#b8b7af"/>
  <path d="m2026 729l-8 12 12-6-1-6h-3z" fill="#794e2a"/>
  <path d="m2032 732l18-2v1l-2 1c3 6.92-3.9 21.04-6 28 6 4.15-4.6 13.72 6 17l-4 16h-6v1c8.5 5.23 10.8-5.86 20-4l-2-12h5c-0.2-4.28 1.1-6.2 5-8l4-9v-4l-2-6h-1v9h-5l2-3v-1l-12-4v-1h4v-7l8-2 3-10c-7.4-4.32-17.6-3-26-3-3.6 0-8.1-1.22-9 3z" fill="#b8b7af"/>
  <path d="m1980 755l11-25c-4 0-8.6-0.6-11.8 2.32-6 5.47-8.7 19.61 0.8 22.68z" fill="#f9f6f4"/>
  <path d="m2e3 730v4c-3.9 1.14-3.9 4.3-4 8 3.7-1.49 5.4-3 6-7h3v-5h-5z" fill="#d8d9d9"/>
  <path d="m1997 749c10.3-0.48 23.7-9.73 28-19l-19 12.2-9 6.8m24 6h1v-3h4c3.5-7.53 11.4-19.44 20-21l-18 29h-4l-5 6 3-6-7 2-4 15 21 11-5-3v-1c5.6-1.87 7-8.72 8-14l6 6c-3.7-11.16 1.3-21.6 6-30 2.7-4.84 1.3-14.57 3-15-15.6-6.54-28.2 9.54-29 24z" fill="#f9f6f4"/>
  <path d="m2061 730v1h6l-6-1z" fill="#a89887"/>
  <path d="m1999 731l-1 3 1-3z" fill="#a3a0a0"/>
  <path d="m2018 731v2l2-2h-2z" fill="#8f8a83"/>
  <path d="m2026 752l-4 3h-1v-3h-1l-4 10 6-2-3 2v4c3.5-0.98 4.5-2.47 5-6h4l18-29c-8.4 0.87-17.8 13.22-20 21z" fill="#f6dcbb"/>
  <path d="m2100 733v1l9 1 1-3-10 1z" fill="#695952"/>
  <path d="m2174 731l-8 21c5-3.41 9.8-15.14 8-21z" fill="#c4a991"/>
  <path d="m1990 732v4h1l-1-4z" fill="#7b7172"/>
  <path d="m2030 732v3h1l-1-3z" fill="#b1885b"/>
  <path d="m2172.3 732.67l0.4 0.66-0.4-0.66z" fill="#8f7c74"/>
  <path d="m1964 733v3h2v-3h-2z" fill="#8f8a83"/>
  <path d="m1972 744h1l4-11c-5.1 1.66-5 6.24-5 11z" fill="#484441"/>
  <path d="m1989 733l-2 7h1l1-7m27 2l3-2-3 2z" fill="#d0c7b5"/>
  <path d="m2077 734v7l-4-2 5 3 2-7-3-1z" fill="#d8d9d9"/>
  <path d="m2094 734v1l4 1-2 5c4.3-3.1 3.1-6.6-2-7z" fill="#d0c7b5"/>
  <path d="m1963 735l-1 9h1v-9z" fill="#535459"/>
  <path d="m2002 735v3h1l1-3h-2z" fill="#c4a991"/>
  <path d="m2004 735l-1 3 1-3z" fill="#796d5f"/>
  <path d="m2025 735l-9 21h3l11-21h-5z" fill="#996d3c"/>
  <path d="m2078 735v6h1l2-3v4h1l-4-7z" fill="#7b7172"/>
  <path d="m2023 737l3 2-1-3-2 1z" fill="#c69554"/>
  <path d="m2104 738l3-2-3 2z" fill="#535459"/>
  <path d="m2170 736v3h1l-1-3z" fill="#695952"/>
  <path d="m1974 737l-1 7h1l2-7h-2z" fill="#796d5f"/>
  <path d="m1975 738l-1 4h1v-4z" fill="#a3a0a0"/>
  <path d="m1995 738l-3 8 4 3 2-4-4-1 1-6z" fill="#796d5f"/>
  <path d="m2013 741l2 3-4 5 6-1c0.9-2.12 4.1-6.44 1-7l1-3-6 3z" fill="#c69554"/>
  <path d="m2015 747l-15 24 8 3 17-36-10 9z" fill="#f6dcbb"/>
  <path d="m2079 738c0.1 3.88 0.5 6.07 4 8l-2-8h-2m92 9h1l4-9c-3.9 2.06-4.8 4.68-5 9z" fill="#473228"/>
  <path d="m2002 743v1l9-4-9 3m67 1h1l3-4c-3-0.69-3.6 1.24-4 4z" fill="#a89887"/>
  <path d="m2085 739v7h1v-5h3l3 7c-1.8-4.28-2-7.91-7-9z" fill="#8f7c74"/>
  <path d="m2169.3 739.67l0.4 0.66-0.4-0.66z" fill="#796d5f"/>
  <path d="m1995 740l-1 4h3l-2-4z" fill="#b8b7af"/>
  <path d="m1997 744l4-4-4 4z" fill="#8f7c74"/>
  <path d="m2074 747l-2-6 5 3c-3.6-6.58-9.5-0.77-3 3z" fill="#695952"/>
  <path d="m2095 747l6 1 1-8-7 7z" fill="#473228"/>
  <path d="m1986 741l-1 3 1-3z" fill="#c4a991"/>
  <path d="m2072 741l2 6-3 1v7c6.5 1.61 10.9 4.31 17 0l-16-14z" fill="#2b2321"/>
  <path d="m2078 741l1 7h1l-2-7z" fill="#a89887"/>
  <path d="m2086 741c0.2 4.77 0.9 8.15 6 9l-3-9h-3z" fill="#484441"/>
  <path d="m2090 741v5h1l3-1 2-4h-6z" fill="#d0c7b5"/>
  <path d="m2168 741v3h1l-1-3z" fill="#796d5f"/>
  <path d="m2179 741l-2 5 4 6-2-11z" fill="#473228"/>
  <path d="m1963 742v7h1l-1-7z" fill="#8f8a83"/>
  <path d="m2008 745v1l6 1 1-5-7 3z" fill="#9a7756"/>
  <path d="m2059 743v1l5 1c-0.7-3.23-2.1-3.02-5-2z" fill="#7b7172"/>
  <path d="m2064 742v3l8 2c-1.3-3.92-4.1-4.74-8-5z" fill="#d0c7b5"/>
  <path d="m2022 743l-1 3 1-3z" fill="#c4a991"/>
  <path d="m1961 744v6h1l-1-6z" fill="#7b7172"/>
  <path d="m1962 744l1 12h2l-3-12z" fill="#d8d9d9"/>
  <path d="m1972 744l4 8-4-8z" fill="#a89887"/>
  <path d="m2056 744v7h-4v1l15 5 3-12-9 4-1-5h-4z" fill="#f9f6f4"/>
  <path d="m2060 744l1 5 3-4-4-1z" fill="#c4a991"/>
  <path d="m2061 744v3l2-3h-2z" fill="#535459"/>
  <path d="m2167.3 744.67l0.4 0.66-0.4-0.66z" fill="#6d5141"/>
  <path d="m2083 745l-3 1c1.2 4.07 3.9 6.86 8 8l-5-9z" fill="#d0c7b5"/>
  <path d="m2005 748l3-2-3 2z" fill="#796d5f"/>
  <path d="m2086 746v3h1l-1-3z" fill="#a3a0a0"/>
  <path d="m1983 747l-1 3 1-3z" fill="#b8b7af"/>
  <path d="m2070 747l-2 5h1l3-5h-2z" fill="#a3a0a0"/>
  <path d="m2095 747v1h4l-4-1z" fill="#d0c7b5"/>
  <path d="m2166.3 747.67l0.4 0.66-0.4-0.66z" fill="#9a7756"/>
  <path d="m2170 747l-2 5h1l1-5z" fill="#6d5141"/>
  <path d="m1997 749v1l7-1h-7z" fill="#8f8a83"/>
  <path d="m2009 752l6-4-6 4z" fill="#e1bc84"/>
  <path d="m2092 748l-3 2v1c2.4-0.29 4-0.49 3-3z" fill="#a3a0a0"/>
  <path d="m1964 749v3h1l-1-3z" fill="#7b7172"/>
  <path d="m1989 749v1h4v4h4v-1h-3v-4h-5m55 0c-2.4 9.11-5.7 17.23-3 27l-6-6c-1.4 5.35-2.9 11.18-8 14v1c2.3 0.42 5.1 1.36 2 3v1l15 4 4-16c-10-3.84 0.5-15.62-6-17l2-11z" fill="#d0c7b5"/>
  <path d="m2070 749l-1 7h5v-1h-3l-1-6z" fill="#484441"/>
  <path d="m2102.7 749.33l0.6 0.34-0.6-0.34z" fill="#796d5f"/>
  <path d="m2165 749l-10 34h1v-2h1l1 35h1c0-15.35-2.5-31.06 1.3-46 1.7-6.5 8.5-14.37 4.7-21z" fill="#b1885b"/>
  <path d="m1961 750v4h1l-1-4z" fill="#484441"/>
  <path d="m1987 750v4h1l1-4h-2z" fill="#a89887"/>
  <path d="m1989 750c1.2 4.27 3.7 6.13 8 7l-4-3v-4h-4z" fill="#f9f6f4"/>
  <path d="m1994 750l2 3-2-3z" fill="#8f7c74"/>
  <path d="m1988 751v4h4v-1l-4-3z" fill="#d8d9d9"/>
  <path d="m1962 752v3h1l-1-3z" fill="#8f8a83"/>
  <path d="m1965 752l-2 4v1c3-0.65 3.5-2.39 2-5z" fill="#a3a0a0"/>
  <path d="m1981 752v4h1l-1-4m5 0l2 3-2-3z" fill="#796d5f"/>
  <path d="m2007 752l-2 7h1l1-7z" fill="#b1885b"/>
  <path d="m2068 752l2 5-2-5z" fill="#796d5f"/>
  <path d="m2094 752l-6 4v1l5 5h7v-1h-3l1-4-4-5z" fill="#d0c7b5"/>
  <path d="m2095 752v5h4v-4l-4-1z" fill="#a89887"/>
  <path d="m2104 752v5h1l-1-5z" fill="#b8b7af"/>
  <path d="m2105 752v5h1l-1-5z" fill="#796d5f"/>
  <path d="m2164 752l-1 3 1-3z" fill="#6d5141"/>
  <path d="m2167 752c-7.6 18.69-4.3 38.22-5 58-0.3 7.52-4 14.28-4 22 6.2 1.75 8.4 6.97 9 13h1l-3.7-23-1.3-40 4-30z" fill="#442313"/>
  <path d="m1966 753v4h1l-1-4z" fill="#484441"/>
  <path d="m1980 753l-2 3 4 2-2-5z" fill="#d0c7b5"/>
  <path d="m1997 754v3h1l-1-3z" fill="#8f8a83"/>
  <path d="m2088 754v2h2v-2h-2z" fill="#a89887"/>
  <path d="m2096 754v2h2v-2h-2z" fill="#695952"/>
  <path d="m1988 755v1h4l-4-1z" fill="#a89887"/>
  <path d="m2017 755c-3.7 5.8-9.4 13.96-8 21 3.4-4.36 9.5-15.61 8-21z" fill="#6d5141"/>
  <path d="m1982 756l-2 2v1c2.2-0.47 3.1-0.86 2-3z" fill="#7b7172"/>
  <path d="m1992.7 756.33l0.6 0.34-0.6-0.34m77.3-0.33v1l6 1-6-2z" fill="#a89887"/>
  <path d="m2075 756l9 4v-2l-9-2z" fill="#695952"/>
  <path d="m2082 760v1l6-4-6 3z" fill="#8f7c74"/>
  <path d="m1992 757v1h5l-5-1z" fill="#695952"/>
  <path d="m2014 757v3h1l1-3h-2z" fill="#c4a991"/>
  <path d="m2062 757v3h5l-5-3z" fill="#8f8a83"/>
  <path d="m2069 758c4.6 9.26 16.1 10.42 25 13 0-3.58 0.6-8.4-1.4-11.57-2.9-4.48-7-1.22-7.6 2.57l-16-4z" fill="#f9f6f4"/>
  <path d="m2102 758v2l2-2h-2z" fill="#d0c7b5"/>
  <path d="m2078.7 759.33l0.6 0.34-0.6-0.34z" fill="#b8b7af"/>
  <path d="m1984 762l4-1-4 1z" fill="#695952"/>
  <path d="m2004 760v3h1l-1-3z" fill="#a89887"/>
  <path d="m2080 760v1l5 1v-1l-5-1z" fill="#d0c7b5"/>
  <path d="m1990 761v5h4v-1h-3v-3h3l-4-1z" fill="#796d5f"/>
  <path d="m2068 761l-2 9h1l3-4-1-4 3 1-4-2z" fill="#8f7c74"/>
  <path d="m1969 764l4-1-4 1z" fill="#8f8a83"/>
  <path d="m1991 762v3h3v-3h-3z" fill="#d0c7b5"/>
  <path d="m1994 762v4h-4v1l6 1 5-6h-7z" fill="#604338"/>
  <path d="m2069 762l1 4c-3.7 0.79-4.5 4.52-5 8h1l2-7 6-2v-1l-5-2z" fill="#535459"/>
  <path d="m2094 762v9l-12-3v1l7 3c-1.9 4.08-4.1 6.57-8 3l-5 15v1l10 2-3 1v1h8l-2-2v-1h4v-2l-14-2v-1l18-8.32 8 4.32-9-9.26-2-11.74z" fill="#b8b7af"/>
  <path d="m2095 762c0 4.74-1.4 11.15 3 14-1.7-4.5-3.1-8.86 0-13l-3-1z" fill="#695952"/>
  <path d="m1970 763l4 5-4-5z" fill="#f9f6f4"/>
  <path d="m2003.3 763.67l0.4 0.66-0.4-0.66m69.4-0.34l0.6 0.34-0.6-0.34z" fill="#a89887"/>
  <path d="m1969 764l-1 3 1-3z" fill="#c4a991"/>
  <path d="m1974 764v5h1l-1-5z" fill="#b8b7af"/>
  <path d="m1996 765l3 6 4-7-7 1z" fill="#794e2a"/>
  <path d="m2011.3 764.67l0.4 0.66-0.4-0.66z" fill="#9a7756"/>
  <path d="m2014.3 764.67l0.4 0.66-0.4-0.66z" fill="#e1bc84"/>
  <path d="m2074.7 764.33l0.6 0.34-0.6-0.34z" fill="#a89887"/>
  <path d="m2180 764c-0.4 3.49-1.1 5.92 2 8v-8h-2z" fill="#2b2321"/>
  <path d="m2161 765v51h1c0-14.31 4.5-37.87-1-51z" fill="#703a1c"/>
  <path d="m1967 772l6 1 3-4c-4.7-1.84-8-2.92-9 3m46-6l-3 10h1l2-10z" fill="#f6dcbb"/>
  <path d="m1975 768l7 3v-1l-7-2z" fill="#695952"/>
  <path d="m2009.3 768.67l0.4 0.66-0.4-0.66z" fill="#d0a76e"/>
  <path d="m2081 768l-1 7h6v-5l-5-2z" fill="#a3a0a0"/>
  <path d="m1966 770l6 5-6-5z" fill="#8f8a83"/>
  <path d="m1974 770l-2 6c4.6 1.05 7.3 0.69 9-4l-7-2z" fill="#f9f6f4"/>
  <path d="m2061 778l4-2 1-6c-4.4 1.26-5.8 3.52-5 8z" fill="#7b7172"/>
  <path d="m1977 771v1l4 2c1.1-2.9-1.6-2.88-4-3z" fill="#d0c7b5"/>
  <path d="m1982 771l-2 8c-9.2 0.03-18.5 5.04-20 15h-4v1l8 1c7 1.04 9.6-4.11 12-10l9 2 2-6-4-6 4-1v-1l-5-3z" fill="#442313"/>
  <path d="m2000.7 771.33l0.6 0.34-0.6-0.34z" fill="#a3a0a0"/>
  <path d="m2086 771v4h-4v3c4.6-0.53 6.4-2.28 6-7h-2z" fill="#d8d9d9"/>
  <path d="m2090 771v2h2v-2h-2z" fill="#8f7c74"/>
  <path d="m2002 772l6 3v-1l-6-2z" fill="#9a7756"/>
  <path d="m2156 772v4h1l-1-4z" fill="#6d5141"/>
  <path d="m1960 774v1l5-2-5 1z" fill="#484441"/>
  <path d="m2002 773v6l6-2 9 10-3-2-5 1-4-2v-1h5c-3-4.18-7.7-2.2-12-1v1l5 1v5c8.8-2.17 13.4 4.08 21 7l-3-3 3-1v-1h-6v-2l9-2-25-14z" fill="#473228"/>
  <path d="m1980.3 774.67l0.4 0.66-0.4-0.66z" fill="#a89887"/>
  <path d="m2159 774v42h-1c0-4.97 0.7-14.33-5-16v-5h-1v16h1l2-7h1l2 15h1l1-29-1-16z" fill="#996d3c"/>
  <path d="m1952 779l-1 5h1l1-4c4.4 0.14 6.4-1.5 9-5l-10 4z" fill="#8f8a83"/>
  <path d="m1968 776v2h11l-11-2z" fill="#a3a0a0"/>
  <path d="m1983 778l4-2-4 2z" fill="#9a7756"/>
  <path d="m1979 776l-11 4v1c3-0.55 12.4-1.33 11-5z" fill="#695952"/>
  <path d="m1985 776v4l3-4h-3z" fill="#f6dcbb"/>
  <path d="m2078 776l-4 12h1l5-12h-2m-112 1l-1 4h1l2-4h-2z" fill="#484441"/>
  <path d="m2012.7 777.33l0.6 0.34-0.6-0.34z" fill="#d0c7b5"/>
  <path d="m1967 778v4h1l2-4h-3z" fill="#d8d9d9"/>
  <path d="m1984 778l3 4-3-4z" fill="#c4a991"/>
  <path d="m2056 778l1 8h1l3-7-5-1z" fill="#8f8a83"/>
  <path d="m2061 778c-0.3 5.2-2.1 9.47-6 13l5 1 1-14z" fill="#473228"/>
  <path d="m2079 787v1l7 2 2-3-2-2v-1l11-5 2 5-3 1c3.2 0.64 7.5-3.07 3.7-5.68-6.6-4.46-15.6 4.47-20.7 7.68z" fill="#bbc6cb"/>
  <path d="m1966 779l-5 6v1l7-3-2-4z" fill="#a3a0a0"/>
  <path d="m2060 779l-2 10h1l1-10z" fill="#695952"/>
  <path d="m2086 784v1l2 2-3 1v1c6.4 1.88 9.2-1.17 14-5l-2-5-11 5z" fill="#d8d9d9"/>
  <path d="m2103 779v1l1 4c3.1-2.05 2.3-3.9-1-5z" fill="#484441"/>
  <path d="m2154 779v5h1l-1-5z" fill="#604338"/>
  <path d="m1953 780l2 12 5 1 2-6-9-7z" fill="#f9f6f4"/>
  <path d="m1992 780l2 6h1l2-5-5-1z" fill="#6d5141"/>
  <path d="m2016.7 780.33l0.6 0.34-0.6-0.34z" fill="#c4a991"/>
  <path d="m2076 780l-1 8h-5l2 4h1l6-2-3-10z" fill="#7b7172"/>
  <path d="m1950 781v3h1l1-3h-2z" fill="#484441"/>
  <path d="m1957.7 781.33l0.6 0.34-0.6-0.34z" fill="#7b7172"/>
  <path d="m1959 781l1 5 4-4-5-1z" fill="#2b2321"/>
  <path d="m1994 783h4c-1.6-1.81-2.4-1.81-4 0z" fill="#9a7756"/>
  <path d="m2156 781l-3 19 5 3-2-22z" fill="#e1bc84"/>
  <path d="m1959 782v5l4 1-3-2-1-4z" fill="#bbc6cb"/>
  <path d="m1995 782v1l3 5h1l1-5-5-1z" fill="#e1bc84"/>
  <path d="m2019 782l3 2-3-2z" fill="#c4a991"/>
  <path d="m1995 783l2 6h1l-3-6z" fill="#c69554"/>
  <path d="m2093 792h-4v1l2 2-16-3-6 2c0 3.19-0.4 5.27 3 6v-1l-2-4c6.8 0.53 16.3 3.74 22.5-0.14 4.4-2.7 6.9-7.96 11.5-10.86-5-1.09-10 3.25-11 8z" fill="#8f7c74"/>
  <path d="m1941 797c3.5-0.26 5.2-0.05 7 3 8-4.66 6.8-8.19 5-16-6.3 0.98-10.8 6.95-12 13z" fill="#d8d9d9"/>
  <path d="m2e3 784l-9 17h1l3-1 8-16h-3z" fill="#f6dcbb"/>
  <path d="m2022.7 784.33l0.6 0.34-0.6-0.34z" fill="#a3a0a0"/>
  <path d="m2092 795v1c5.3-0.85 9.3-7.5 12-12l-12 11z" fill="#535459"/>
  <path d="m1951 785l-3 5 3-5z" fill="#695952"/>
  <path d="m2024.7 785.33l0.6 0.34-0.6-0.34z" fill="#c4a991"/>
  <path d="m1996 786v6h1l-1-6z" fill="#965f2a"/>
  <path d="m2002 787l-3 9h1l5-6v-1l-3-2z" fill="#6d5141"/>
  <path d="m2005 790l4-2-4 2z" fill="#b8b7af"/>
  <path d="m2027.7 787.33l0.6 0.34-0.6-0.34z" fill="#8f8a83"/>
  <path d="m2153 787v5h1l-1-5z" fill="#9a7756"/>
  <path d="m1988 819l30-24c-10.6-18.11-29.3 13.23-30 24z" fill="#f9f6f4"/>
  <path d="m2052 788v1l3 1-3-2z" fill="#484441"/>
  <path d="m2099 788c-1.3 4.22-2.6 6.73-7 8l6 5 1-13z" fill="#473228"/>
  <path d="m2149 788l-1 6 1-6z" fill="#604338"/>
  <path d="m2010 789v1h3l-3-1z" fill="#b8b7af"/>
  <path d="m2030.7 789.33l0.6 0.34-0.6-0.34z" fill="#695952"/>
  <path d="m2113 792l7-2c-3.1-1.26-5.2-0.82-7 2m19 0l4-2 2 4-1-5-5 3z" fill="#473228"/>
  <path d="m2003 790v2l2-2h-2z" fill="#c4a991"/>
  <path d="m2014.7 790.33l0.6 0.34-0.6-0.34z" fill="#8f7c74"/>
  <path d="m2032 790v1l3 1-3-2z" fill="#8f8a83"/>
  <path d="m2049 790v2l2-2h-2z" fill="#796d5f"/>
  <path d="m2073 790c3 4.67 8 4 13 4l-13-4z" fill="#d0c7b5"/>
  <path d="m2115 790v1h3l-2 6h1l3-7h-5z" fill="#796d5f"/>
  <path d="m2134 790v11h-1v-9h-1v13h3c0.5-5.06 3.7-11.19-1-15z" fill="#8f8a83"/>
  <path d="m2068 800h1v-6h5c-4.2-5.72-6 2.38-6 6z" fill="#473228"/>
  <path d="m2112 797l-9 1c3.4 5.2 9.4 2.58 13-1-1-2.79-0.6-3.56 2-5-4.1-1.42-6.4 0.93-6 5z" fill="#a3a0a0"/>
  <path d="m1955 795l5-1c-2.4-1.66-3.4-1.44-5 1z" fill="#796d5f"/>
  <path d="m1994 792l-2 3 2-3z" fill="#6d5141"/>
  <path d="m2001 792l-1 4 3-4h-2z" fill="#c4a991"/>
  <path d="m2017 792l1 3-6 5h14l-9-8z" fill="#f6dcbb"/>
  <path d="m2110 792v2h2v-2h-2z" fill="#484441"/>
  <path d="m2114 796l4-4-4 4z" fill="#d0c7b5"/>
  <path d="m2133 792l1 5h1l-2-5z" fill="#bbc6cb"/>
  <path d="m2036 793v1l4 2-4-3z" fill="#796d5f"/>
  <path d="m2046 793v2l2-2h-2z" fill="#8f7c74"/>
  <path d="m1998 794l-4 10c2.8-2.77 6-6.1 4-10z" fill="#996d3c"/>
  <path d="m2110 794l-8 6h1l9-3-2-3z" fill="#535459"/>
  <path d="m2129 794l1 6h1v-6h-2z" fill="#2b2321"/>
  <path d="m2132 794v4h2v-4h-2z" fill="#f9f6f4"/>
  <path d="m2137 794v4h1l-1-4z" fill="#695952"/>
  <path d="m2138 794v4h1l-1-4z" fill="#2b2321"/>
  <path d="m2147 794l-1 6 3-6h-2z" fill="#8f7c74"/>
  <path d="m1939 795l-3 4 5 9-7 6 4 2 8-19-7-2z" fill="#2b2321"/>
  <path d="m1991 795l-2 5h1l1-5z" fill="#b1885b"/>
  <path d="m2021 795l3 2-3-2z" fill="#7b7172"/>
  <path d="m2070 795c0.8 4.54 3.7 5.01 6 1l-6-1z" fill="#d0a76e"/>
  <path d="m1943 796v1h3l-3-1z" fill="#7b7172"/>
  <path d="m1953 796l-1 3 1-3z" fill="#535459"/>
  <path d="m2040 796v1l5 1v-1l-5-1z" fill="#796d5f"/>
  <path d="m2068 806c7.8 0 16.2-1.23 20-9-7.6-0.6-18.8-0.99-20 9z" fill="#d0c7b5"/>
  <path d="m2086 796v1l3 1c-2.7 4.93-6.4 8.24-12 9v1c5.3-0.11 10.7-0.04 12-6 3.6 1.08 5.7 3.49 2 6 2.5 6.29 7.5 1.51 9-3h4v-1h-3l-3-4v1l2 2-3 3c-1.5-6.68-3.7-9.78-11-10z" fill="#996d3c"/>
  <path d="m1915 822c8.1-4.19 11.6-17.1 15-25-6.5 2.6-12.6 18.39-15 25z" fill="#484441"/>
  <path d="m1946 797l1 7 5-6-4 2-2-3z" fill="#b8b7af"/>
  <path d="m2024 797v1l5 2-5-3z" fill="#796d5f"/>
  <path d="m2115 797l-6 6c4.4-0.35 5.9-2.21 8-6h-2z" fill="#484441"/>
  <path d="m1990 798l-8 18 10-15h-1l-1-3m18 7h4l-8 11 12-6v-4l11-1 2-4c-5.8-3.48-18.7-3.43-21 4z" fill="#e1bc84"/>
  <path d="m2028 798l8 7-8-7z" fill="#473228"/>
  <path d="m2088 798c-5.8 5.19-11.2 7.93-19 8v1c5.8 2.8 20.3-0.41 19-9z" fill="#b1885b"/>
  <path d="m2126 798l-6 16 3-1 4 6 1-21h-2z" fill="#695952"/>
  <path d="m2132 798l2 3v-3h-2z" fill="#d0c7b5"/>
  <path d="m1951 799l-8 16-2-2h-1l-1 8-5 3v2l3 9h1l3-14 6 3c-0.2 6.52-9.2 9.43-6.3 15.72 5.1 10.7 22.1-2.66 23.3-9.72l-10 4 1-5 5 1-2-14-5-5h-1v2h-1v-14z" fill="#442313"/>
  <path d="m1936 800v4h4l-4-4m8 0l3 6-3-6z" fill="#7b7172"/>
  <path d="m1988 800v3h1l-1-3z" fill="#9a7756"/>
  <path d="m1996.3 800.67l0.4 0.66-0.4-0.66z" fill="#c4a991"/>
  <path d="m2068 800l-2 5 2-5z" fill="#a89887"/>
  <path d="m2101 800v4l5-3-5-1z" fill="#473228"/>
  <path d="m2145 800l-5 16h1l3-3h1l2-13h-2z" fill="#604338"/>
  <path d="m1937 801v2h2v-2h-2z" fill="#a3a0a0"/>
  <path d="m2026 801l1 4-11 1v4l-16 6 8-13c-6.2 1.49-15.6 10.59-19 16l-1-3-13 4-21 25 3-2 2 4v1c-5 4.34-0.7 14.29-1 19.96-0.2 3.56-3.7 7.51-6 10.04v12c5.7 3.33 6.9 18.61 7 25h5l1-24h4l-1-5h4v-4h-4l-1-16-8 6 14-15h-3v-1c12.1-6.79 14.3-18.16 15-32l28 0.5 15-5.5v-4l-18 5c3.4-7.45 14.9-13.28 23-13l-2 5c7.2-4.57 1-10.04-5-11z" fill="#f6dcbb"/>
  <path d="m2029 801v1h3l-3-1z" fill="#a89887"/>
  <path d="m2096 806h1l3-5-4 5z" fill="#d0a76e"/>
  <path d="m2104 802v1l5-2-5 1z" fill="#695952"/>
  <path d="m2089 802c-2.4 6.58-10.8 6.51-17 7v1c4.7 0 8.6-0.45 11 4l-3 1 8 3v-5h4l-1-5c5.4-1.16 2.2-5.7-2-6z" fill="#703a1c"/>
  <path d="m2151 802l-2 14c4-2.8 3.6-9.43 4-14h-2z" fill="#b1885b"/>
  <path d="m1991 803v3h1l1-3h-2z" fill="#d0a76e"/>
  <path d="m1993 803l-9 14c5-1.86 10.5-8.43 9-14z" fill="#6d5141"/>
  <path d="m2100 805l-10 15 23-14v-2l-13 1z" fill="#e1bc84"/>
  <path d="m2109 803v1l5 1-5-2z" fill="#b1885b"/>
  <path d="m2114 803l-10 12 14-4v-4h-4v-4z" fill="#442313"/>
  <path d="m2127 803c-2.2 6.23-2.5 20.24 4 24 0-7.63 1-17.72-4-24z" fill="#8f7c74"/>
  <path d="m2131.3 803.67l0.4 0.66-0.4-0.66z" fill="#535459"/>
  <path d="m1932 805v1h4c-0.9 3.06-7 10.1-10 8l-1 6 16-12-2-4-7 1z" fill="#484441"/>
  <path d="m2155 804l-7 12v4l8-9v5h1l-2-12z" fill="#473228"/>
  <path d="m1986 805l-1 3 1-3z" fill="#604338"/>
  <path d="m2e3 816c5.9-0.96 11.5-4.86 12-11-7 0.08-10.2 4.33-12 11z" fill="#d0a76e"/>
  <path d="m2035 805v3h1l-1-3z" fill="#a89887"/>
  <path d="m1927 816l9-9c-5.7-2.01-8.2 4.39-9 9z" fill="#796d5f"/>
  <path d="m1944 806l1 4h1l-2-4z" fill="#6d5141"/>
  <path d="m2029 809l4-2c-2.7-0.85-3.4-0.85-4 2z" fill="#e1bc84"/>
  <path d="m2096 821v1l16-2-6-2c-1.1-5.41-0.4-7.46 4-11-7-1.58-10.5 10-14 14z" fill="#9a7756"/>
  <path d="m1930 812l6-5-6 5z" fill="#8f8a83"/>
  <path d="m1944 807l-3 8c2.8-1.95 4-4.64 3-8z" fill="#8f7c74"/>
  <path d="m1983 808l-2 8h1l3-8h-2z" fill="#604338"/>
  <path d="m2013 816l14-7c-4.7-1.38-11.5 3.03-14 7z" fill="#e1bc84"/>
  <path d="m2026 809v1h4l-2 9h1l3-11-6 1z" fill="#c4a991"/>
  <path d="m2106 818l10 2-1 4c6-1.69 6.3-10.51 7-16-5.6 1.87-14.1 3.98-16 10z" fill="#b1885b"/>
  <path d="m2133 808v5h1v-4l3 1-4-2z" fill="#473228"/>
  <path d="m2134 809v5h2l-2-5z" fill="#c4a991"/>
  <path d="m2021 811v1l5-1h-5z" fill="#c69554"/>
  <path d="m2013 819c6.5-0.43 14.3-2.74 17-9-6 0.74-15.1 2.62-17 9z" fill="#996d3c"/>
  <path d="m2072 810v1l11 3c-1.6-4.98-6.5-4-11-4z" fill="#442313"/>
  <path d="m2136 810l-2 6 2-6z" fill="#796d5f"/>
  <path d="m2137 810l-2 16h1l6-16h-5z" fill="#442313"/>
  <path d="m2143 811l-3 13h2l1-13z" fill="#d0a76e"/>
  <path d="m2088 813l2 7-1-4 7-3h-8z" fill="#b1885b"/>
  <path d="m1920 833l14-20c-7.3 3.51-12.7 12.04-14 20z" fill="#8f8a83"/>
  <path d="m1938 813v3h-1c-8.3-2.88-5.9 8.24-6 13l8-8 1-8h-2z" fill="#020203"/>
  <path d="m2030 814v7c-3.8 0.44-5.6 1.34-7 5l25 2c-3.7-5.52-10.3-3.72-16-3l-2-11z" fill="#442313"/>
  <path d="m2098 814l-8 7c6.1 3.61 8.3-1.82 10-7h-2z" fill="#a89887"/>
  <path d="m2131 814v13l-8-11h-1v5h3c0.2 5.11 1.6 17.43 7 19l-1-26z" fill="#604338"/>
  <path d="m2143 814v5h1l-1-5z" fill="#695952"/>
  <path d="m2029 815l-3 5v1h4l-1-6z" fill="#794e2a"/>
  <path d="m2011 816l-1 4c5 1.08 10.7 0.19 14-4-4 0.77-8.2 4.07-11 0h-2z" fill="#d0a76e"/>
  <path d="m2089 816v3h1l1-3h-2z" fill="#c4a991"/>
  <path d="m2157 816v8l3-7h-1v2h-1l-1-3z" fill="#604338"/>
  <path d="m1929 819l1 4-1-4z" fill="#535459"/>
  <path d="m1970 819l3 6-3-6z" fill="#484441"/>
  <path d="m1971 819l2 6h1l2-6h-5z" fill="#7b7172"/>
  <path d="m2016 823v1l11-4-11 3z" fill="#c69554"/>
  <path d="m2139 819l2 8-2-8z" fill="#9a7756"/>
  <path d="m1976 820v1h4l-4-1z" fill="#796d5f"/>
  <path d="m2099 820v1h5l-5-1z" fill="#604338"/>
  <path d="m2113 820l4 5v-1l-1-4h-3z" fill="#6d5141"/>
  <path d="m1941 821c-2.4 11.32-8.5 17.92 0 28l7 1 7-8c-4.5 0.56-17.5 1.99-14.4-6.85 1.9-5.22 6.3-4.21 6.4-11.15l-4-3h-2z" fill="#703a1c"/>
  <path d="m2016 824v1l10-3-10 2z" fill="#996d3c"/>
  <path d="m2138 821l-1 11h2l-1-11z" fill="#604338"/>
  <path d="m1923.3 822.67l0.4 0.66-0.4-0.66z" fill="#535459"/>
  <path d="m1928 822c-12.7 15.48-21.2 43.12-22 63 18.6-4.44 23.5-35.26 22.2-51-0.4-4.07 1.3-8.17-0.2-12z" fill="#2b2321"/>
  <path d="m1930 822l-4 39h1l9-35-6 6 2-10h-2z" fill="#8f8a83"/>
  <path d="m2136 822v4h1l-1-4z" fill="#9a7756"/>
  <path d="m1985 824l-3 21h1l2-5 4 2v-6l7 4 3-8-9-4-4 4 2-8h-3z" fill="#c69554"/>
  <path d="m1988 824v1h4l-4-1z" fill="#7b7172"/>
  <path d="m1995 825v3c7.9 0.64 15.1 3.15 21-4l-21 1z" fill="#a89887"/>
  <path d="m2012 827v8l17-5v4l6 1c-0.5-2.48-0.6-2.58-3-2v-5h5v-1c-5.1 0-10.2 0.88-14-3l-11 3z" fill="#604338"/>
  <path d="m1968 826v1l4-1h-4z" fill="#796d5f"/>
  <path d="m1988 827l5 2h1v-4l-6 2z" fill="#473228"/>
  <path d="m1994 825l-2 4v1l7 2-3 8-3-2-1 4 5 2 4-12-3-1 2-2v-1l-6-3z" fill="#996d3c"/>
  <path d="m1989 826v1l3 2c1-2.51-0.6-2.71-3-3z" fill="#2b2321"/>
  <path d="m2004 830v1h4l3 9c-8 0.63-4.1 5.42-5.8 10.85-0.7 2.46-3.7 3.29-5.2 5.15h21l-2 6 5-1c-0.5-6.58-4.8-8.68-11-9v-4h3l-4-21h4l-12 3z" fill="#794e2a"/>
  <path d="m1930 827l2 5-2-5z" fill="#473228"/>
  <path d="m1988 827l1 4-2-2h-1c1 4.89 3.8 0.95 6-1l-4-1z" fill="#996d3c"/>
  <path d="m1936 828l-10 41h1l2-5h1l-1 10-4-1 2 4-2 9h1c8.2-10.4 13-25.81 15-39-8.1-4.81-2.2-12.28-5-19z" fill="#2b2321"/>
  <path d="m1964 833h1l3-5-4 5z" fill="#796d5f"/>
  <path d="m2032 828v5l16-3v-2h-16z" fill="#965f2a"/>
  <path d="m1917 830l-2 12c5.3-1.85 5.3-8.12 6-13l-4 1z" fill="#695952"/>
  <path d="m1987 829v2h2v-2h-2z" fill="#703a1c"/>
  <path d="m1998 829l3 3-1 3c6.6 1.07 4.9 6.41 0 9v10c10.3-0.8 0.9-12.38 11-14l-3-9-10-2z" fill="#442313"/>
  <path d="m2e3 829v1h4l-4-1z" fill="#796d5f"/>
  <path d="m2020 829l1 5c-6.1 2.9-5 8-5 14h-3v4c5.4 0.55 9.6 2.54 11 8h1v-4l9 6 4-12-12-2-4 1-1-4 6 1-9-6 4-7 5 7h3v-4l3 4 4-1c-1.9-3.7-3.9-4.69-8-5v-4l-9-1z" fill="#442313"/>
  <path d="m2109 833v-1l-2-1h5c-2.5-4.27-8.6 0.8-3 2z" fill="#a3a0a0"/>
  <path d="m1934 830l-2 10h1l1-10z" fill="#484441"/>
  <path d="m2034 831l8 6 9-5c-3.3-3.77-12.6-2.31-17-1z" fill="#c69554"/>
  <path d="m2107 832l3-2-3 2z" fill="#d8d9d9"/>
  <path d="m2016 831l1 5 4-2v-2l-5-1z" fill="#796d5f"/>
  <path d="m2048 831l-6 3c0.5 4.62 2.2 6.91 7 6 2.7 4.07 7.7 2.09 12 2-2.1-5.6-7.6-8.95-13-11z" fill="#e1bc84"/>
  <path d="m2104 831l5 3v-1l-5-2z" fill="#473228"/>
  <path d="m1916 832l-5 16 7-16h-2z" fill="#a3a0a0"/>
  <path d="m2035 832l4 6 1-1v-2l-5-3z" fill="#996d3c"/>
  <path d="m2051.7 832.33l0.6 0.34-0.6-0.34z" fill="#695952"/>
  <path d="m2160 832c1.9 11.27 4.3 16.6-6 23v1l4-1-2 3c10.9-3.72 15.9-20.08 4-26z" fill="#796d5f"/>
  <path d="m2015 833v5l2-5h-2z" fill="#a89887"/>
  <path d="m2053 833l3 2-3-2z" fill="#6d5141"/>
  <path d="m1960 837l4-3-4 3z" fill="#c4a991"/>
  <path d="m1999 835l-2 9h1l1-9z" fill="#604338"/>
  <path d="m2e3 835l-2 10c6-1.6 11-9.3 2-10z" fill="#2b2321"/>
  <path d="m2056 835l4 3-4-3z" fill="#473228"/>
  <path d="m1989 836l-4 12h7v-11l-3-1z" fill="#9a7756"/>
  <path d="m1957 840l3-3-3 3z" fill="#7b7172"/>
  <path d="m1990 837l3 3-1-3h-2z" fill="#703a1c"/>
  <path d="m2037 839l6 2c-1.2-3.44-3-3.97-6-2z" fill="#604338"/>
  <path d="m2060.3 838.67l0.4 0.66-0.4-0.66m-148 2l0.4 0.66-0.4-0.66m18.7-0.67v3h1l-1-3z" fill="#796d5f"/>
  <path d="m1985 840l-4 10c4.5-2.4 5.8-4.98 6-10h-2z" fill="#703a1c"/>
  <path d="m1991 840v6h1l5 2-11 1v1l2 2 12-4-9-8z" fill="#b1885b"/>
  <path d="m2043 840v1l5 1v3c4.3 0 12.9-0.06 14-5h-1c-3.7 2.8-8.6 3.28-12 0h-6z" fill="#9a7756"/>
  <path d="m1914 842l-2 12h1l4-12h-3z" fill="#8f8a83"/>
  <path d="m2006 842v4c3.4-0.26 4.9-0.68 6-4h-6z" fill="#b1885b"/>
  <path d="m2045 842c0.8 7.19 5.4 5.73 11 4v-1l-8-3h-3z" fill="#473228"/>
  <path d="m2161 852h1v-10c-5.5 2.21-2.8 5.76-1 10z" fill="#703a1c"/>
  <path d="m1956 843l-12 12c1.3-3.21 1.9-4.82-1-7-8.7 19.87-14.1 40.72-22.2 61-3.3 8.35-8.9 21.46-4.8 30l1-3h1l2 17h16c-1.5-5.69-2-28.93-7-30l7.8-13 21-39.32 1.2-22.68v-1l-3-4z" fill="#f9f6f4"/>
  <path d="m2056 843v2l6-1-6-1z" fill="#473228"/>
  <path d="m1992 844v5l5-1-5-4z" fill="#d0a76e"/>
  <path d="m1910 845v3h1l-1-3z" fill="#8f7c74"/>
  <path d="m1930 845v3h1l-1-3z" fill="#796d5f"/>
  <path d="m1953 845l-1 3 1-3z" fill="#d0c7b5"/>
  <path d="m1998 845l4 3-4-3z" fill="#965f2a"/>
  <path d="m1909 848l-1 6 3-6h-2z" fill="#b8b7af"/>
  <path d="m1915 848l-1 4h1v-4z" fill="#473228"/>
  <path d="m1929 848v5h1l-1-5z" fill="#484441"/>
  <path d="m1942 848l-1 3 1-3z" fill="#a3a0a0"/>
  <path d="m1944 848v7l6-3-6-4z" fill="#d0c7b5"/>
  <path d="m1947 848l3 3v-1l-3-2z" fill="#7b7172"/>
  <path d="m1980 848l-12 15 11-4-1 5 14-12v-1l-12 5v-8z" fill="#965f2a"/>
  <path d="m1981 854l7-2-2-4-5 6z" fill="#e1bc84"/>
  <path d="m1999 848l-7 2v1l7 1v-4z" fill="#6d5141"/>
  <path d="m1908 849l-1 7h1v-7z" fill="#484441"/>
  <path d="m2133 854h1l4-4c-3.1-0.68-4 1.24-5 4z" fill="#695952"/>
  <path d="m1940.3 850.67l0.4 0.66-0.4-0.66z" fill="#796d5f"/>
  <path d="m2136 850l-3 12 13-4c-7.2 7.14-18.7 7.06-22 18 6.6-3.94 8.2-8.9 17-9l17-12-19 2v-7h-3z" fill="#b1885b"/>
  <path d="m2139 850v7h11v-1h-10l-1-6z" fill="#965f2a"/>
  <path d="m2140 850v6l15-1v-1c-5.8 0-10.6 0.31-15-4z" fill="#442313"/>
  <path d="m1911 851l-5 8v6l7-9-2-5z" fill="#695952"/>
  <path d="m1926 851v5h1l-1-5z" fill="#796d5f"/>
  <path d="m1989 859c6.3-0.02 10.5-0.98 11-8-6.5 0.75-10.7 0.16-11 8z" fill="#2b2321"/>
  <path d="m2036 851l-2 11h-2l-2 6v1c3.3-1.1 3.7-2.59 4-6l4 5 8 1-6 13c5.7 1.29 7.1-6.74 8.4-10.83 3-9.69-1.8-19.2-12.4-20.17z" fill="#794e2a"/>
  <path d="m2135 851l-31 60c2.2-1.29 5.5-6 6-2h1l11.9-28.58 4.5-10.16 18.6-12.26-13 4 4-11h-2z" fill="#c4a991"/>
  <path d="m1940 852v4h1l-1-4z" fill="#d0c7b5"/>
  <path d="m1980 852v4l8-4h-8z" fill="#9a7756"/>
  <path d="m1939 853v3h1l-1-3z" fill="#796d5f"/>
  <path d="m1896 854l-1 6h1l2-6h-2z" fill="#7b7172"/>
  <path d="m1908 854l-1 5h1l2-5h-2z" fill="#a89887"/>
  <path d="m1970 857l4 1 3-3c-3.1-1.28-5-0.73-7 2z" fill="#d0a76e"/>
  <path d="m1978 854l-2 2v1c2.2-0.47 3.1-0.86 2-3z" fill="#442313"/>
  <path d="m1988 854l-7.4 10.26-1.6 17.74c15.4-6.5 33.8 16.62 37 30h6l-6-28h9v4h1l3-5c-1.1-5.2-5.4-5.55-10-7 0 5.27-17.1-4.76-11-7v-1l-13-4 2-5h-8l-1-5z" fill="#703a1c"/>
  <path d="m2008 859l8-1v3l-16 6v1c5.3-0.02 10.2-0.28 12-6 5-0.06 8.1-0.59 9-6-4.5-0.31-11.6-3.72-13 3z" fill="#9a7756"/>
  <path d="m2132.3 854.67l0.4 0.66-0.4-0.66z" fill="#796d5f"/>
  <path d="m1995 864l5 3c1.6-4.1 3.6-6.31 8-7-1.8-10.26-11.3-1.82-13 4z" fill="#965f2a"/>
  <path d="m2081 855v1l1 18h1v-6l5 3-4-16h-3z" fill="#796d5f"/>
  <path d="m1894 856l2 6-2-6z" fill="#535459"/>
  <path d="m1911 856l-4 16h1l3-16z" fill="#a89887"/>
  <path d="m1925 856l-4 16h4v-16z" fill="#7b7172"/>
  <path d="m1938 856v3h1l-1-3z" fill="#796d5f"/>
  <path d="m2025 856l-15 15 19-3v-4h3c-0.1-5.65-1.1-7.81-7-8z" fill="#2b2321"/>
  <path d="m2081 856v9h2v-9h-2z" fill="#c4a991"/>
  <path d="m2130 856l-2 6h1l1-6z" fill="#695952"/>
  <path d="m2048 857c0.4 13.97-3.8 35.5-23 31v-4h-9l6 28h-6c-1.4-8.92-8.8-18.83-16-24 0.4 5.42 4.2 7.91 6.7 12.44 5.8 10.68 2.8 17.56 17.3 17.56v-22c7-0.02 11.8-2.47 13-10 10.6-1.69 17.4-13.85 15-24h4l-8-5z" fill="#442313"/>
  <path d="m2e3 867l16-6v-3c-6.9 0.32-14.1 1.54-16 9z" fill="#c69554"/>
  <path d="m2080 858v5h1l-1-5z" fill="#695952"/>
  <path d="m2084 858c0 4.44-0.6 8.15 4 10l-3-2-1-8z" fill="#604338"/>
  <path d="m1937.3 859.67l0.4 0.66-0.4-0.66z" fill="#796d5f"/>
  <path d="m1974 859l1 3c-12 2-7 10.56-7 20l6 3-1-15h3l-2-11z" fill="#e1bc84"/>
  <path d="m1976 859v24c7.8-4.58 2.5-16.75 3-24h-3z" fill="#b1885b"/>
  <path d="m2141 867l3-4 10-3c-5-1.89-11.9 1.84-13 7z" fill="#604338"/>
  <path d="m1883 916l0.7 7-3.7 24h1v-3h1v9h5l20-84-4 4h-1l5-13c-5.5 1.79-6.1 7.99-8.4 12.72-6.5 12.95-11.5 29.37-15.6 43.28z" fill="#d0c7b5"/>
  <path d="m1924 860v4h1l-1-4z" fill="#473228"/>
  <path d="m1971 863l4-3-4 3z" fill="#f6dcbb"/>
  <path d="m2076 860c-0.6 4.06-1.7 12.98 3 14-0.7 3.71-2.7 8.98 2 10l-1-24h-4z" fill="#2b2321"/>
  <path d="m1937 861l-1 7h1v-7z" fill="#d8d9d9"/>
  <path d="m2126 861v3h1l1-3h-2z" fill="#473228"/>
  <path d="m1902.3 862.67l0.4 0.66-0.4-0.66z" fill="#7b7172"/>
  <path d="m1966 862l-7 10 9-10h-2z" fill="#b1885b"/>
  <path d="m2012 862l-7 7c2.8 5.72 8.8 8.44 15 9l-2-5c6.4-0.81 12.9-2.12 15-9h-4v4l-19 3 9-8-7-1z" fill="#442313"/>
  <path d="m2127.3 862.67l0.4 0.66-0.4-0.66z" fill="#796d5f"/>
  <path d="m2034 863c-1.2 7.5-9.6 8.78-16 10v3l11 6 9-10-2 11-4 3h-3l-3-3c0.6 8 5.6 4.91 10.2 1.93 5.6-3.65 9.6-8.89 9.8-15.93l-8-1-4-5z" fill="#996d3c"/>
  <path d="m1901.3 864.67l0.4 0.66-0.4-0.66z" fill="#695952"/>
  <path d="m1905 864l-3 9h1c2-3.11 4-5.61 2-9z" fill="#8f7c74"/>
  <path d="m1929 864c-1.3 2.74-2.4 4.8 0 7l-1-4h1v2h1l-1-5z" fill="#796d5f"/>
  <path d="m2126 864l-3 7h1l2-7z" fill="#8f7c74"/>
  <path d="m2081 865l-1 12h1v-12z" fill="#604338"/>
  <path d="m1900.3 866.67l0.4 0.66-0.4-0.66z" fill="#695952"/>
  <path d="m1928 867v3h1l-1-3z" fill="#d0c7b5"/>
  <path d="m1935 867l-1 3 1-3z" fill="#8f8a83"/>
  <path d="m2127 875l4-1c1.4-4.43 4.6-5.34 9-6-5.8-2.4-11.7 1.05-13 7z" fill="#965f2a"/>
  <path d="m2083 868v5h1v-4h1v3h1v-4h-3z" fill="#a89887"/>
  <path d="m1899 869v3h1l-1-3z" fill="#796d5f"/>
  <path d="m1925 869l-6 29h1l3-10h1l-5 21h1l9-27h-1l-2 4h-1l2-9-2-4 4 1-4-5z" fill="#473228"/>
  <path d="m2084 869v4l4 2h1l-5-6z" fill="#d0c7b5"/>
  <path d="m1923 870v5h1l-1-5z" fill="#c4a991"/>
  <path d="m1973 870l-2 18c7.1-3.53 5-11.29 5-18h-3z" fill="#d0a76e"/>
  <path d="m1898.3 872.67l0.4 0.66-0.4-0.66z" fill="#796d5f"/>
  <path d="m1920.3 872.67l0.4 0.66-0.4-0.66z" fill="#a89887"/>
  <path d="m1921 872c-3.7 7.03-10.6 10.78-14.9 17.17-6.3 9.63-10.1 27.47-10.1 38.83l2-3 7 1v-4c-6.3-1.04-4.1-5.96-4-11h1l1 4 9-13c7.8-2.66 10.4-22.56 11-30h-2z" fill="#f9f6f4"/>
  <path d="m2035 872l-6 14 3-3h4l2-11h-3z" fill="#c69554"/>
  <path d="m2080 880l8-3v-4c-4.8 0.37-6.9 2.31-8 7z" fill="#f6dcbb"/>
  <path d="m2081.3 874.67l0.4 0.66-0.4-0.66z" fill="#8f8a83"/>
  <path d="m1906 875v5h1l-1-5z" fill="#484441"/>
  <path d="m1917 878l3-3-3 3z" fill="#c4a991"/>
  <path d="m1905 876v4h1l-1-4z" fill="#7b7172"/>
  <path d="m1922 876v4h1l-1-4z" fill="#8f8a83"/>
  <path d="m2124 876l-2 9h1l3-9h-2z" fill="#484441"/>
  <path d="m1915 877v3h1l1-3h-2z" fill="#695952"/>
  <path d="m2085 877v1h3l-3-1z" fill="#8f8a83"/>
  <path d="m2084 878l-4 2v3c3.2-0.55 4.9-1.65 4-5z" fill="#8f7c74"/>
  <path d="m2085 878l-4 7 6 6h1l3-6c-2.6-1.73-4.2-2.91-3-6l-3-1z" fill="#484441"/>
  <path d="m1895.3 880.67l0.4 0.66-0.4-0.66z" fill="#796d5f"/>
  <path d="m1905 880l-1 8 4-2v-1l-3-5z" fill="#473228"/>
  <path d="m1912 883l3-3-3 3z" fill="#a3a0a0"/>
  <path d="m1921 880l-1 4h1v-4z" fill="#d0c7b5"/>
  <path d="m1930.3 880.67l0.4 0.66-0.4-0.66z" fill="#8f7c74"/>
  <path d="m1952 880l-2 5 2 3h1l-1-8z" fill="#c4a991"/>
  <path d="m1972 953h12v-1c-5.3-6.12-3-16.42-3-24 9.5 4.28 13.8 15.16 15 25h5l-1-36h4v3l12 3v5h4v3h4c0.4 5.13 3.1 7.66 8 9v7l13 6c0-8.16-3-24.21-13-25l-4-30-1-2c-5.5 1.19-3 17.03-3 22-20-0.01-16-30.53-35.4-37.25-4.2-1.43-10.9-0.38-12.3 4.46-2.6 9.07 0 21.35-0.3 30.79-0.2 4.64-2.9 7.82-3.7 12.17-1.6 7.77-0.3 16.92-0.3 24.83z" fill="#2b2321"/>
  <path d="m1894.3 882.67l0.4 0.66-0.4-0.66z" fill="#695952"/>
  <path d="m1929 882v3h1l-1-3z" fill="#796d5f"/>
  <path d="m1930 882v3h1l-1-3z" fill="#b8b7af"/>
  <path d="m1906 888l6-5-6 5z" fill="#a3a0a0"/>
  <path d="m2117 883l-1 3 1-3z" fill="#604338"/>
  <path d="m2121 883l-1 3 1-3z" fill="#796d5f"/>
  <path d="m1893 884v4h1l-1-4z" fill="#8f8a83"/>
  <path d="m1920 884v4h1l-1-4m31 0l-4 10h1l3-10z" fill="#9a7756"/>
  <path d="m2034 888h1l5-3c-3.3-1.24-4.9-0.23-6 3z" fill="#6d5141"/>
  <path d="m1929 885v3h1l-1-3z" fill="#b8b7af"/>
  <path d="m1975 885c-5.8 8.25-1.8 26.91-3.2 37-1 7.58-6 14.45-6.8 22h-8v-4h-2v13h17c0-7.65-1.2-16.4 0.3-23.91 2.4-12.64 8.1-31.1 2.7-44.09z" fill="#703a1c"/>
  <path d="m2121 885l-4 13h1l3-13z" fill="#473228"/>
  <path d="m1928.3 886.67l0.4 0.66-0.4-0.66z" fill="#7b7172"/>
  <path d="m1968 886l1 5h-4l-1 24h-5c0-4.4-3.8-32.68-10-22h5l5 38h5l7-45h-3z" fill="#e1bc84"/>
  <path d="m2088 886l3 20h1v-6l4 2-4-4v-12h-4z" fill="#8f8a83"/>
  <path d="m2119 886l-1 5h1v-5z" fill="#8f7c74"/>
  <path d="m1892 888v3h1l-1-3m11 0c-6.4 19.99-15.1 43.98-16 65h2c0.5-21.3 11.3-44.25 16-65h-2z" fill="#796d5f"/>
  <path d="m1905 888l-1 4h1v-4z" fill="#d8d9d9"/>
  <path d="m1919 888v3h1l-1-3z" fill="#c4a991"/>
  <path d="m1923 888l-5 26h1l4-26z" fill="#9a7756"/>
  <path d="m1926.3 888.67l0.4 0.66-0.4-0.66z" fill="#796d5f"/>
  <path d="m1927.3 888.67l0.4 0.66-0.4-0.66z" fill="#d0c7b5"/>
  <path d="m1970 888l-2 32h1c0.8-9.66 4.9-22.74 1-32z" fill="#b1885b"/>
  <path d="m1971 888c0 13.59-1 25.9-4.8 39-0.7 2.55-0.4 11.79-4.2 11.79-5.3 0-5.3-15.17-6-18.79-7.6 2.69-4 25.9-4 33h2v-21h2l2 12h7l6.7-20.04 1.3-35.96h-2z" fill="#996d3c"/>
  <path d="m2028 889v1l6-2-6 1z" fill="#604338"/>
  <path d="m2089 888v6h2v-6h-2z" fill="#d0c7b5"/>
  <path d="m2115.3 888.67l0.4 0.66-0.4-0.66z" fill="#796d5f"/>
  <path d="m2092 889v9h1l-1-9z" fill="#695952"/>
  <path d="m1926 890v3h1l-1-3z" fill="#c4a991"/>
  <path d="m2114 890l-1 3 1-3z" fill="#473228"/>
  <path d="m1891 891l-1 5h1v-5z" fill="#484441"/>
  <path d="m1918 891v5h1l-1-5z" fill="#a89887"/>
  <path d="m2117 891l-7 26h2l5-26z" fill="#6d5141"/>
  <path d="m1946 892l-7 13.09 4 38.91h3c0-13.45-7.6-28.38-2-41h1l1 9h2l2-19-4-1z" fill="#f6dcbb"/>
  <path d="m1969 892l-5 39h1c3.5-8.78 7.7-30.14 4-39z" fill="#c4a991"/>
  <path d="m1903 893v3h1l-1-3z" fill="#d0c7b5"/>
  <path d="m1925 893v3h1l-1-3z" fill="#b1885b"/>
  <path d="m1950 893c-1 4.13-1.8 8.31 2 11l1-11h-3z" fill="#9a7756"/>
  <path d="m1953 893l-2 51h1c0-6.86-2.7-20.08 4-24 0.7 5.26 0.6 12.02 2.9 16.85 3.7 7.63 6.1-2.59 6.1-5.85h-6l-6-38z" fill="#c69554"/>
  <path d="m1889 896v3h1l-1-3z" fill="#695952"/>
  <path d="m1917 896l-1 4h1v-4z" fill="#c4a991"/>
  <path d="m1918 896l-2 8h1c0.6-1.96 1-2.55 1 0h1l-1-8z" fill="#794e2a"/>
  <path d="m1924 896v3h1l-1-3z" fill="#a89887"/>
  <path d="m1948 896v16h-2l-1-9h-1l-1.6 16.09 3.6 24.91h-3l-1-11h-1l2 20h9l-2-32-2-25z" fill="#e1bc84"/>
  <path d="m2111 896l-1 4h1v-4z" fill="#473228"/>
  <path d="m2116 898l-2 14h1l1-14z" fill="#442313"/>
  <path d="m1923.3 899.67l0.4 0.66-0.4-0.66z" fill="#c4a991"/>
  <path d="m2090 899v7h1l-1-7z" fill="#484441"/>
  <path d="m1915 900l-3 2-9 13-1-4h-1c-0.3 5.37-3.2 10.42 4 11v4l-9 2v-4h-1l-6 29h2c1.5-6.36 8.4-18.92 16-15 2.8-9.29 11.8-28.82 8-38z" fill="#f6dcbb"/>
  <path d="m2092 900v6h1l1-3 1 3 4-1v-1l-7-4z" fill="#d8d9d9"/>
  <path d="m2110 900v4h1l-1-4z" fill="#a89887"/>
  <path d="m1917 902c-4.5 14.1-8 27.49-6 42h3l3-42z" fill="#473228"/>
  <path d="m1922.3 902.67l0.4 0.66-0.4-0.66z" fill="#c4a991"/>
  <path d="m2096 902v1l3 1-9 6v-4h-1c0.4 10.55 6.7 3.08 12 0v-3l-5-1z" fill="#695952"/>
  <path d="m2112 902l-2 10h1l1-10z" fill="#b1885b"/>
  <path d="m2093 903l-2 7c3-1.85 3.9-3.93 2-7z" fill="#f9f6f4"/>
  <path d="m1900 904v3h1l-1-3z" fill="#c4a991"/>
  <path d="m1921 904v3h1l-1-3m22 0l-1 12h2l-1-12m147 2v4h1l-1-4z" fill="#a89887"/>
  <path d="m2094 908l3-1-3 1z" fill="#c4a991"/>
  <path d="m2109 906c-9.3 8.82-19.3 16.25-21 30l8-8 10-8 3-14z" fill="#d0c7b5"/>
  <path d="m1886 907l-1 3 1-3z" fill="#7b7172"/>
  <path d="m1921 907l-1 3 1-3z" fill="#d0c7b5"/>
  <path d="m1914 908v4h1l-1-4z" fill="#b1885b"/>
  <path d="m1937 908c-3 8.23 2 19.81 2 29 0 4.44 1.2 8.53-3 11l-1-9h-1c0.3 7.7 0.1 13.89 9 14l-4-45h-2z" fill="#c69554"/>
  <path d="m2095 909l-4 4 1 6h1c1.2-3.88 3-4.7 7-5v-1h-3l-2-4z" fill="#442313"/>
  <path d="m2101 912l3-3-3 3z" fill="#604338"/>
  <path d="m2109 909l-3 11-10 8-4 3 10 5c0.7-8.34 10.3-19.03 7-27z" fill="#d0a76e"/>
  <path d="m1884.3 910.67l0.4 0.66-0.4-0.66m-1.3 1.33l-2 5h1l1-5z" fill="#796d5f"/>
  <path d="m1898 912l-1 4h1v-4m202 0v2l2-2h-2m-182 2l-1 6h1v-6z" fill="#a89887"/>
  <path d="m1934 914l-5 9 4 1 1-10z" fill="#c4a991"/>
  <path d="m2093 918h1l6-3c-3.5-1.42-5.8-0.6-7 3z" fill="#9a7756"/>
  <path d="m1884 915c-10.6 9.08-10.1 25.64-14 38h7c1.6-10.8 10.2-27.47 7-38z" fill="#f6dcbb"/>
  <path d="m2093 920l6-4c-3.5-1.13-4.8 0.85-6 4z" fill="#c4a991"/>
  <path d="m2108 915v5h2v-5h-2z" fill="#b1885b"/>
  <path d="m1878 916v7h1l2-7h-3z" fill="#473228"/>
  <path d="m1912 916v4h1l-1-4z" fill="#b1885b"/>
  <path d="m1934 916l1 22h1c1.4-5.72 3.4-18.2-2-22z" fill="#473228"/>
  <path d="m1936 916v22l-1-2h-1l1 4h2c1.8-6.07 2.9-18.8-1-24z" fill="#794e2a"/>
  <path d="m2e3 917l1 36h36l-5-6v-7c-4.3-1.92-7.2-4.22-8-9h-4v-3h-4v-5l-12-3v-3h-4z" fill="#020203"/>
  <path d="m2110 917c-1.4 6.25-0.4 16.89-4.5 21.85-3.9 4.62-6.9 0.53-11.4 1.52-5.1 1.12-4.1 8.79-4.1 12.63h4v-10c17 4.05 17.9-12.38 18-26h-2z" fill="#2b2321"/>
  <path d="m2092 919v5h1l-1-5z" fill="#8f7c74"/>
  <path d="m1916 920l-1 4h1v-4z" fill="#695952"/>
  <path d="m1933 920v11h1l-1-11z" fill="#794e2a"/>
  <path d="m2091 920v5h1l-1-5z" fill="#473228"/>
  <path d="m2107 920l-1 19h1l2-19h-2z" fill="#703a1c"/>
  <path d="m1877 923l-1 5h1v-5z" fill="#695952"/>
  <path d="m1911 923l-1 5h1v-5z" fill="#a89887"/>
  <path d="m2106 923l-4 13c-6.1-3.51-10.9-7.41-11 3h1v-3h6c1 3.12 5.3 5.74 7.4 1.57 1.6-3.2 1.4-11.17 0.6-14.57z" fill="#965f2a"/>
  <path d="m1915 924v4h1l-1-4z" fill="#c4a991"/>
  <path d="m1938 925l-2 23c5.5-1.85 4-18.11 2-23z" fill="#996d3c"/>
  <path d="m2090 925v3h1l1-3h-2z" fill="#695952"/>
  <path d="m1875 928v3h1l-1-3z" fill="#796d5f"/>
  <path d="m1914 928v3h1l-1-3m18 0v8h1l-1-8z" fill="#a89887"/>
  <path d="m1981 928c0 7.4-3.6 21.61 5 25l-1-17h1l10 16c-1.1-9.18-5.2-21.26-15-24z" fill="#442313"/>
  <path d="m2089 928l-1 4h1v-4z" fill="#796d5f"/>
  <path d="m1874.3 931.67l0.4 0.66-0.4-0.66z" fill="#8f7c74"/>
  <path d="m1913 931v5h1l-1-5z" fill="#c4a991"/>
  <path d="m1933 931v8h1l-1-8z" fill="#996d3c"/>
  <path d="m1908 932v4h1l-1-4z" fill="#8f7c74"/>
  <path d="m1954 932v21h1v-13h2v4h1l-2-12h-2z" fill="#794e2a"/>
  <path d="m2087 932v4h1l-1-4z" fill="#796d5f"/>
  <path d="m1873 933v3h1l-1-3z" fill="#7b7172"/>
  <path d="m1912 933v6h1l-1-6z" fill="#9a7756"/>
  <path d="m2086 934v4h1l-1-4z" fill="#604338"/>
  <path d="m2090 934c-0.7 5.3-6.8 14.75-2 19l2-19z" fill="#b1885b"/>
  <path d="m1898 941h1l5-3v6h2l2-8h-1l-1 2c-3-3.41-6.8-0.62-8 3z" fill="#e1bc84"/>
  <path d="m1908 936l-2 17h6l-2-17h-2z" fill="#2b2321"/>
  <path d="m1913 936v17l3-5h2v5h2l-2-17h-1l-1 3-3-3z" fill="#f6dcbb"/>
  <path d="m1985 936l1 17h10v-1l-11-16z" fill="#703a1c"/>
  <path d="m2087 936l-3 17h2l4-17h-3z" fill="#e1bc84"/>
  <path d="m2092 936l-2 8h1l15-5c-3.9 0.6-6 0.59-8-3h-6z" fill="#473228"/>
  <path d="m2134 936c-0.9 4.87-1.3 8.62-6 11v6c5.5-1.81 7.5-9.68 8-15 6.5 1.97 6 9.22 6 15h7v-1l-2-8-6-8h-7z" fill="#442313"/>
  <path d="m1899 941l4-1-1 7h1l1-9-5 3z" fill="#c69554"/>
  <path d="m2136 938l-5 15c4.1-1.47 4.7-4.93 5-9h5c-0.3-3.86-1.1-5.35-5-6z" fill="#604338"/>
  <path d="m1872 939v5h1l-1-5z" fill="#a89887"/>
  <path d="m1896 944l5-2v5h1l1-7-7 4z" fill="#996d3c"/>
  <path d="m1906 940v4h1l-1-4z" fill="#796d5f"/>
  <path d="m1895 946h5l-1 6h1l1-10-6 4z" fill="#794e2a"/>
  <path d="m1879 943l-2 10h5v-9h-1v3h-1l-1-4z" fill="#a89887"/>
  <path d="m1904 944l-3 9c3.6-0.78 4.5-5.96 3-9z" fill="#f6dcbb"/>
  <path d="m1905 944l-1 9h1v-9z" fill="#796d5f"/>
  <path d="m1913 944v8h1l-1-8z" fill="#c4a991"/>
  <path d="m2088 944c-0.3 3.7-1.4 6.76 2 9v-9h-2z" fill="#703a1c"/>
  <path d="m2136 944l-2 9h8v-9h-6z" fill="#996d3c"/>
  <path d="m1893 946l-2 7h1l3-7h-2z" fill="#b1885b"/>
  <path d="m1893 953h6l1-7c-4.9 0.38-6 2.41-7 7z" fill="#442313"/>
  <path d="m1870 947v5h1l1-5h-2z" fill="#a89887"/>
  <path d="m1901 947l-2 6 4-6h-2z" fill="#e1bc84"/>
  <path d="m1912 947v6h1l-1-6z" fill="#796d5f"/>
  <path d="m2083 947v6h1l-1-6z" fill="#9a7756"/>
  <path d="m1869 948v5h1l-1-5z" fill="#604338"/>
  <path d="m1916 948l-1 5c3-0.65 2.9-2.01 3-5h-2z" fill="#a89887"/>
  <path d="m1893 949l-1 4h1v-4z" fill="#794e2a"/>
  <path d="m1905 949v4h1l-1-4z" fill="#473228"/>
  <metadata>
    <rdf:RDF>
      <cc:Work>
        <dc:format>image/svg+xml</dc:format>
        <dc:type rdf:resource="http://purl.org/dc/dcmitype/StillImage"/>
        <cc:license rdf:resource="http://creativecommons.org/licenses/publicdomain/"/>
        <dc:publisher>
          <cc:Agent rdf:about="http://openclipart.org/">
            <dc:title>Openclipart</dc:title>
          </cc:Agent>
        </dc:publisher>
        <dc:title>NASA flight suit development images</dc:title>
        <dc:date>2013-10-31T18:32:54</dc:date>
        <dc:description>The images were created during research from the United States Government entity NASA found in publication entitled: Dressing For Altitude </dc:description>
        <dc:source>https://openclipart.org/detail/187804/nasa-flight-suit-development-images-by-hypermodern-187804</dc:source>
        <dc:creator>
          <cc:Agent>
            <dc:title>hypermodern</dc:title>
          </cc:Agent>
        </dc:creator>
        <dc:subject>
          <rdf:Bag>
            <rdf:li>Astronaut</rdf:li>
            <rdf:li>FinalFrontier</rdf:li>
            <rdf:li>Flight</rdf:li>
            <rdf:li>FlightSuit</rdf:li>
            <rdf:li>NASA</rdf:li>
            <rdf:li>PressureSuit</rdf:li>
            <rdf:li>PublicDomain</rdf:li>
            <rdf:li>Rocket</rdf:li>
            <rdf:li>Shuttle</rdf:li>
            <rdf:li>Space</rdf:li>
          </rdf:Bag>
        </dc:subject>
      </cc:Work>
      <cc:License rdf:about="http://creativecommons.org/licenses/publicdomain/">
        <cc:permits rdf:resource="http://creativecommons.org/ns#Reproduction"/>
        <cc:permits rdf:resource="http://creativecommons.org/ns#Distribution"/>
        <cc:permits rdf:resource="http://creativecommons.org/ns#DerivativeWorks"/>
      </cc:License>
    </rdf:RDF>
  </metadata>
</svg>